<svg xmlns="http://www.w3.org/2000/svg" width="44.017" height="41.943" viewBox="0 0 44.017 41.943">
  <g id="Grupo_7" data-name="Grupo 7" transform="translate(-137.609 -1190.714)">
    <path id="Trazado_33" data-name="Trazado 33" d="M137.609,1214.609l2.075-4.68c-.368-.2-.792-.438-1.212-.678a1,1,0,0,1-.619-1.113,1.028,1.028,0,0,1,.9-.851c2.858-.711,5.713-1.436,8.57-2.152a1.524,1.524,0,0,1,2,1.057q1.54,4.345,3.068,8.7a1.021,1.021,0,0,1-1.523,1.285c-.388-.212-.773-.428-1.194-.661l-1.295,2.542c.426,0,.762-.005,1.1,0,.215,0,.43.017.643.042.454.052.685.294.665.68s-.311.618-.784.6c-.615-.029-1.231-.052-1.844-.107a.488.488,0,0,0-.566.309c-.8,1.6-1.621,3.187-2.421,4.786a2.493,2.493,0,0,0,2.161,3.757c2.344.145,4.69.259,7.035.382a.737.737,0,0,0,.867-.777q.288-3.574.575-7.15a.755.755,0,0,0-.8-.932c-.6-.049-1.2-.06-1.8-.107-.469-.037-.724-.315-.684-.7a.656.656,0,0,1,.769-.574c.658.032,1.317.06,1.973.116a2,2,0,0,1,1.835,2.146q-.282,3.726-.6,7.449a1.98,1.98,0,0,1-2.115,1.823q-3.624-.189-7.249-.389a3.575,3.575,0,0,1-3.038-1.819q-3.012-5.149-5.962-10.335a9.2,9.2,0,0,1-.532-1.437Zm6.132,9.779c.086-.162.134-.249.179-.338q2.394-4.748,4.79-9.494c.317-.63.609-.717,1.233-.374.312.172.627.341.99.539a2.01,2.01,0,0,0-.043-.2c-.915-2.6-1.835-5.2-2.742-7.8-.116-.335-.286-.4-.612-.312-2.187.562-4.377,1.109-6.567,1.661l-1.355.343,1.1.623c.587.332.668.589.366,1.186-.581,1.148-1.149,2.3-1.751,3.44a3.154,3.154,0,0,0,.1,3.3c1.325,2.256,2.623,4.529,3.932,6.794C143.476,1223.94,143.592,1224.135,143.741,1224.388Z" fill="#c7813b"/>
    <path id="Trazado_34" data-name="Trazado 34" d="M167.795,1218.71h2.735c-.077-.185-.143-.35-.216-.513q-1.237-2.782-2.477-5.564a2.009,2.009,0,0,1,1.165-2.866q3.249-1.345,6.5-2.691a2.024,2.024,0,0,1,2.931,1.182c.274.613.552,1.225.819,1.842a.662.662,0,0,1-.275.949.652.652,0,0,1-.894-.421c-.3-.65-.579-1.307-.876-1.957a.732.732,0,0,0-1.107-.442q-3.312,1.36-6.619,2.735a.749.749,0,0,0-.458,1.165c.933,2.1,1.874,4.2,2.8,6.31a.42.42,0,0,0,.449.294c1.818-.012,3.637.005,5.455-.013a2.509,2.509,0,0,0,2.343-3.6c-.211-.5-.444-.992-.659-1.491a.671.671,0,0,1,.264-.954c.368-.17.707-.009.917.449.238.52.474,1.042.7,1.568a3.619,3.619,0,0,1-.266,3.531q-3.215,5-6.477,9.972a4.1,4.1,0,0,1-3.575,1.87c-1.2.014-2.4,0-3.713,0,0,.5.007.968,0,1.435a1.038,1.038,0,0,1-.67,1.088,1.018,1.018,0,0,1-1.209-.4q-2.941-3.363-5.874-6.732a1.512,1.512,0,0,1,.047-2.135q3.207-3.381,6.425-6.754a1.018,1.018,0,0,1,1.193-.333,1,1,0,0,1,.623,1.106c-.008.415-.018.831-.026,1.246A.74.74,0,0,0,167.795,1218.71Zm-1.819,12.2c.026-.469.05-.821.065-1.174.034-.82.17-.953,1.006-.955,1.274,0,2.548-.007,3.822,0a3.059,3.059,0,0,0,2.737-1.479q2.262-3.495,4.532-6.984c.063-.1.108-.207.184-.354h-.545q-5.088.027-10.178.055c-1.063.007-1.2-.135-1.145-1.18.014-.274,0-.55,0-.9-2.022,2.122-3.988,4.181-5.938,6.255a.485.485,0,0,0,.015.468C162.308,1226.715,164.1,1228.76,165.976,1230.909Z" fill="#c7813b"/>
    <path id="Trazado_35" data-name="Trazado 35" d="M172.782,1196.457c-.374.222-.7.418-1.035.613-.6.351-.849.291-1.237-.3-.688-1.055-1.39-2.1-2.057-3.169a3.191,3.191,0,0,0-2.932-1.6c-2.835.022-5.671.007-8.564.007.066.124.106.22.162.305.279.416.566.827.843,1.245s.231.79-.112,1.012-.689.1-.971-.319c-.206-.309-.4-.624-.61-.935a2.513,2.513,0,0,0-4.413-.011q-1.88,2.875-3.742,5.761c-.381.586-.32.888.262,1.289q2.881,1.987,5.766,3.968c.58.4.938.326,1.32-.262,1.294-1.992,2.585-3.986,3.89-6-.24-.373-.485-.74-.715-1.117a.643.643,0,1,1,1.077-.691q1.682,2.568,3.344,5.148a.63.63,0,0,1-.232.987c-.346.222-.705.426-1.163.7l2.23.428c.029.005.057.006.086.011.562.1.832.389.751.8s-.393.576-.944.479c-1.028-.182-2.052-.384-3.078-.578a.95.95,0,0,1-.834-.808.977.977,0,0,1,.524-1.081c.4-.24.808-.483,1.25-.747l-1.512-2.328c-.115.163-.205.283-.287.409q-1.673,2.574-3.344,5.148a2.028,2.028,0,0,1-3.039.6q-2.921-2.006-5.836-4.017a2,2,0,0,1-.6-3.038q1.878-2.9,3.761-5.8a3.831,3.831,0,0,1,3.421-1.853q5.715.008,11.429,0a4.272,4.272,0,0,1,3.814,2.073c.635.985,1.279,1.964,1.943,2.983.446-.263.875-.509,1.3-.767a1.019,1.019,0,0,1,1.205,0,.994.994,0,0,1,.342,1.187q-1.215,4.291-2.437,8.581a1.51,1.51,0,0,1-1.855,1.174c-.973-.162-1.942-.347-2.912-.533a.631.631,0,0,1-.568-.764.644.644,0,0,1,.813-.5c.929.167,1.858.335,2.782.525.284.058.436-.011.514-.286q1.087-3.837,2.179-7.674A1.709,1.709,0,0,0,172.782,1196.457Z" fill="#c7813b"/>
  </g>
</svg>
