<svg xmlns="http://www.w3.org/2000/svg" width="51.99" height="34.102" viewBox="0 0 51.99 34.102">
  <g id="Grupo_2" data-name="Grupo 2" transform="translate(-488.911 -1440.666)">
    <path id="Trazado_8" data-name="Trazado 8" d="M540.9,1474.266a1.161,1.161,0,0,1-1.081.5q-24.929-.013-49.857-.008a1.942,1.942,0,0,1-.4-.017.722.722,0,0,1-.647-.782.7.7,0,0,1,.713-.714c.281-.02.566,0,.9,0V1461.32c0-.892.215-1.112,1.1-1.113q2.412,0,4.823,0h.582c0-1.57.016-3.075,0-4.579a3.4,3.4,0,0,1,1.434-3.026.725.725,0,0,0,.19-.518c.014-1.54,0-3.08.014-4.62a2.873,2.873,0,0,1,.134-.843c.381-1.19.8-2.367,1.169-3.561a9.948,9.948,0,0,0,.313-1.573c.069-.494.366-.833.8-.82s.694.348.739.864a7.563,7.563,0,0,0,.2,1.186,5.9,5.9,0,0,0,.374,1.1c1.222,2.556,1.1,5.284,1.038,8a1.023,1.023,0,0,0,.439.976,2.943,2.943,0,0,1,1.191,2.464c.006,1.438,0,2.877,0,4.315v.615c1.05,0,2.059.009,3.068-.009.134,0,.27-.13.4-.21,1.893-1.181,3.793-2.353,5.673-3.555a1.148,1.148,0,0,1,1.4.006c1.88,1.2,3.776,2.38,5.677,3.55a1.579,1.579,0,0,0,.752.22c.875.027,1.752.011,2.7.011,0-.236,0-.416,0-.6,0-1.4.007-2.809,0-4.214a3.283,3.283,0,0,1,1.352-2.758.834.834,0,0,0,.266-.58c.021-1.523,0-3.047.019-4.57a3.465,3.465,0,0,1,.158-.99c.35-1.112.75-2.208,1.088-3.323a12.866,12.866,0,0,0,.37-1.766.749.749,0,0,1,.705-.733.666.666,0,0,1,.787.627,12.992,12.992,0,0,0,1.089,3.932,9.8,9.8,0,0,1,.585,3.719c-.052,1.047-.025,2.1,0,3.147a.846.846,0,0,0,.287.564,3.309,3.309,0,0,1,1.324,2.676c.01,1.421,0,2.843,0,4.265v.6h.6c1.625,0,3.249,0,4.874,0,.792,0,1.031.246,1.031,1.031q0,5.661,0,11.322v.649c.585.1,1.289-.171,1.627.548Zm-43.865-1.057c0-1.343-.005-2.643,0-3.944,0-.587.307-.918.793-.9.466.015.724.329.726.91.005,1.133,0,2.267,0,3.4,0,.178.015.356.022.534h4.934V1461.77h-4.939c-.008.139-.017.237-.017.336,0,1.219,0,2.437-.005,3.655a.763.763,0,0,1-.743.85.782.782,0,0,1-.773-.832c-.013-.3,0-.609,0-.914v-3.1h-4.951V1473.2h1.7v-1.561c0-.813-.008-1.625,0-2.437a.758.758,0,0,1,.756-.837c.454,0,.743.306.762.825.007.2,0,.406,0,.609v3.414Zm34.207-11.442h-4.951v11.428h4.93c.008-.143.02-.244.02-.344,0-1.218-.005-2.437,0-3.655a.737.737,0,0,1,.748-.834.76.76,0,0,1,.769.826c.011.219,0,.44,0,.66v3.353H534.5c0-1.337,0-2.638,0-3.938,0-.573.269-.891.735-.9.486-.011.781.32.784.911.007,1.134,0,2.268,0,3.4v.534h1.7v-11.442h-4.957v1.55c0,.829.011,1.659-.006,2.487a.776.776,0,0,1-.745.81.757.757,0,0,1-.768-.775c-.014-.3,0-.609,0-.914C531.242,1463.88,531.243,1462.835,531.243,1461.767Zm-13.06,11.446v-11.445h-6.559v11.439h2.514v-.573c0-1.083,0-2.166,0-3.249,0-.7.259-1.029.771-1.023s.749.332.751,1.045c0,1.082,0,2.165,0,3.248,0,.179.019.359.03.558Zm6.522-11.45h-4.932V1473.2h4.932Zm-14.674,11.446v-11.438h-4.922v11.438Zm-11.45-16.334v3.3h1.672c.129-.608-.219-1.533.785-1.554,1.065-.022.672.946.814,1.55h1.668v-3.292Zm29.368,3.294c.138-.612-.245-1.546.784-1.552,1.044-.006.672.957.821,1.546h1.658v-3.285H526.28v3.291Zm-9.247,0c-1.308-.818-2.488-1.563-3.681-2.286-.084-.051-.284.024-.4.093-1.037.636-2.068,1.283-3.1,1.93-.1.063-.188.145-.338.263Zm-15.217-4.883a1.456,1.456,0,0,0-1.207-1.625,10.76,10.76,0,0,0-2.42,0,1.436,1.436,0,0,0-1.215,1.629Zm27.734,0a1.569,1.569,0,0,0-1.3-1.637,10.91,10.91,0,0,0-2.37.005,1.419,1.419,0,0,0-1.211,1.632Zm-31-6.568v3.291h1.666v-3.291Zm27.694,0v3.29h1.67v-3.29Zm-26.855-4.073-.817,2.481h1.645Zm28.5,2.489c-.139-.426-.26-.807-.386-1.187s-.264-.774-.438-1.284c-.246.739-.453,1.357-.657,1.975-.052.156-.1.314-.152.5Z" fill="#c7813b"/>
    <path id="Trazado_9" data-name="Trazado 9" d="M501.81,1469.54c0,.776-.238,1.144-.749,1.145s-.771-.383-.769-1.141a2.552,2.552,0,0,1,.024-.554.708.708,0,0,1,.791-.623.7.7,0,0,1,.7.718C501.82,1469.236,501.81,1469.388,501.81,1469.54Z" fill="#c7813b"/>
    <path id="Trazado_10" data-name="Trazado 10" d="M495.3,1465.478c0,.135.01.271,0,.405a.746.746,0,0,1-.759.726.737.737,0,0,1-.746-.69,4.854,4.854,0,0,1-.01-.809.755.755,0,0,1,.77-.818c.451,0,.731.312.75.832,0,.118,0,.236,0,.354Z" fill="#c7813b"/>
    <path id="Trazado_11" data-name="Trazado 11" d="M501.088,1464.293a.722.722,0,0,1,.726.743.751.751,0,0,1-.771.762.789.789,0,0,1-.741-.758A.754.754,0,0,1,501.088,1464.293Z" fill="#c7813b"/>
    <path id="Trazado_12" data-name="Trazado 12" d="M527.995,1469.5a3.834,3.834,0,0,1,0-.455.691.691,0,0,1,.688-.675.666.666,0,0,1,.777.567,3.781,3.781,0,0,1,0,1.153.674.674,0,0,1-.768.587.706.706,0,0,1-.7-.722c-.01-.151,0-.3,0-.455Z" fill="#c7813b"/>
    <path id="Trazado_13" data-name="Trazado 13" d="M534.5,1465.429a3.459,3.459,0,0,1,0-.455.7.7,0,0,1,.69-.677.688.688,0,0,1,.8.612,3.541,3.541,0,0,1,0,1.058.7.7,0,0,1-.783.634.71.71,0,0,1-.709-.717c-.012-.15,0-.3,0-.455Z" fill="#c7813b"/>
    <path id="Trazado_14" data-name="Trazado 14" d="M528.765,1465.8a.758.758,0,0,1-.769-.717.731.731,0,0,1,.734-.789.76.76,0,0,1,.781.755A.785.785,0,0,1,528.765,1465.8Z" fill="#c7813b"/>
    <path id="Trazado_15" data-name="Trazado 15" d="M515.658,1465.461c0,.118.008.237,0,.354a.775.775,0,0,1-.747.8.765.765,0,0,1-.763-.777,5.649,5.649,0,0,1,0-.758.755.755,0,1,1,1.509-.019C515.667,1465.191,515.657,1465.326,515.658,1465.461Z" fill="#c7813b"/>
    <path id="Trazado_16" data-name="Trazado 16" d="M521.476,1465.445c0-.118-.005-.236,0-.353.027-.5.287-.787.726-.8a.738.738,0,0,1,.785.749,4.737,4.737,0,0,1,0,.808.756.756,0,1,1-1.51-.051C521.471,1465.681,521.477,1465.563,521.476,1465.445Z" fill="#c7813b"/>
    <path id="Trazado_17" data-name="Trazado 17" d="M508.316,1465.474c0,.152.013.3,0,.454a.694.694,0,0,1-.7.673.675.675,0,0,1-.768-.582,4.07,4.07,0,0,1-.032-1.005.72.72,0,0,1,.807-.718.712.712,0,0,1,.7.774c.005.134,0,.269,0,.4Z" fill="#c7813b"/>
  </g>
</svg>
