<svg xmlns="http://www.w3.org/2000/svg" width="165.495" height="52.524" viewBox="0 0 165.495 52.524">
  <g id="Grupo_122" data-name="Grupo 122" transform="translate(-442.022 -837.227)">
    <g id="Grupo_121" data-name="Grupo 121">
      <g id="Grupo_47" data-name="Grupo 47">
        <g id="Grupo_46" data-name="Grupo 46">
          <g id="Grupo_42" data-name="Grupo 42">
            <path id="Trazado_85" data-name="Trazado 85" d="M442.022,863.079l3.25,3.25,22.6,22.6,3.25-3.25-22.6-22.6,1.469-1.469,3.25-3.25,9.912-9.912,3.25-3.25,1.469-1.469,3.25-3.25-3.25-3.25-21.133,21.133Z" fill="#3cbf71"/>
          </g>
          <g id="Grupo_43" data-name="Grupo 43">
            <path id="Trazado_86" data-name="Trazado 86" d="M467.874,853.167l3.25-3.25,1.469-1.469,3.25-3.25-3.25-3.25-3.25,3.25-1.469,1.469-3.25,3.25-9.912,9.912-3.25,3.25,21.133,21.133,3.25-3.25-17.882-17.882Z" fill="#3cbf71"/>
          </g>
          <g id="Grupo_44" data-name="Grupo 44">
            <path id="Trazado_87" data-name="Trazado 87" d="M472.594,857.887l-8.443,8.443-3.25-3.25,8.443-8.443,3.25-3.25,1.469-1.469,3.25-3.25,3.25,3.25,1.469,1.469,11.693,11.693-3.25,3.25-11.693-11.693-1.469-1.469-1.469,1.469Z" fill="#3cbf71"/>
          </g>
          <g id="Grupo_45" data-name="Grupo 45">
            <path id="Trazado_88" data-name="Trazado 88" d="M474.064,859.356l3.25-3.25,3.25,3.25,8.443,8.443-3.25,3.25-8.443-8.443-8.443,8.443-3.25-3.25Z" fill="#3cbf71"/>
          </g>
          <path id="Trazado_89" data-name="Trazado 89" d="M473.519,868.814a5.308,5.308,0,1,0,7.507,0A5.308,5.308,0,0,0,473.519,868.814Zm6.957,6.956a4.53,4.53,0,1,1,0-6.406A4.531,4.531,0,0,1,480.476,875.77Z" fill="#3cbf71"/>
        </g>
      </g>
      <g id="Grupo_49" data-name="Grupo 49">
        <g id="Grupo_48" data-name="Grupo 48">
          <path id="Trazado_90" data-name="Trazado 90" d="M502.006,870.4c-1.533,0-2.967-.775-2.967-2.521v-2.129a2.628,2.628,0,0,1,2.918-2.579c1.356,0,2.83.686,2.83,2.3v.333h-1.639v-.166a1.061,1.061,0,0,0-1.152-1.04,1.091,1.091,0,0,0-1.21,1.118v2.119a1.108,1.108,0,0,0,1.229,1.128,1.039,1.039,0,0,0,1.133-1.04v-.166h1.639v.343C504.787,869.717,503.352,870.4,502.006,870.4Z" fill="#3cbf71"/>
        </g>
      </g>
      <g id="Grupo_51" data-name="Grupo 51">
        <g id="Grupo_50" data-name="Grupo 50">
          <path id="Trazado_91" data-name="Trazado 91" d="M510.117,870.286l-.42-1.3h-2.489l-.429,1.3H505.11l2.469-7h1.874l2.44,7Zm-1.65-5.209h-.029l-.81,2.53h1.64Z" fill="#3cbf71"/>
        </g>
      </g>
      <g id="Grupo_53" data-name="Grupo 53">
        <g id="Grupo_52" data-name="Grupo 52">
          <path id="Trazado_92" data-name="Trazado 92" d="M517.838,870.286v-4.454h-.03l-1.268,3.512h-1.2l-1.278-3.5h-.02v4.444h-1.61v-6.995h2.157l1.366,3.63,1.327-3.63h2.167v6.995Z" fill="#3cbf71"/>
        </g>
      </g>
      <g id="Grupo_55" data-name="Grupo 55">
        <g id="Grupo_54" data-name="Grupo 54">
          <path id="Trazado_93" data-name="Trazado 93" d="M524.983,870.286l-.42-1.3h-2.489l-.429,1.3h-1.669l2.469-7h1.874l2.44,7Zm-1.65-5.209H523.3l-.81,2.53h1.64Z" fill="#3cbf71"/>
        </g>
      </g>
      <g id="Grupo_57" data-name="Grupo 57">
        <g id="Grupo_56" data-name="Grupo 56">
          <path id="Trazado_94" data-name="Trazado 94" d="M531.21,870.286l-1.376-2.472h-.79v2.472H527.3v-6.995h3.045a2.7,2.7,0,0,1,1.67.471,2.115,2.115,0,0,1,.819,1.737,2.139,2.139,0,0,1-1.317,2.06l1.6,2.727Zm-1.093-5.621h-1.083v1.854h1.083a.909.909,0,0,0,1.015-.932C531.132,864.939,530.7,864.665,530.117,864.665Z" fill="#3cbf71"/>
        </g>
      </g>
      <g id="Grupo_59" data-name="Grupo 59">
        <g id="Grupo_58" data-name="Grupo 58">
          <path id="Trazado_95" data-name="Trazado 95" d="M538.257,870.286l-.419-1.3h-2.489l-.429,1.3h-1.669l2.469-7h1.874l2.44,7Zm-1.649-5.209h-.029l-.81,2.53h1.639Z" fill="#3cbf71"/>
        </g>
      </g>
      <g id="Grupo_61" data-name="Grupo 61">
        <g id="Grupo_60" data-name="Grupo 60">
          <path id="Trazado_96" data-name="Trazado 96" d="M545.94,870.286h-2.918v-6.995h2.9c1.551,0,2.85.834,2.85,2.462v1.972A2.566,2.566,0,0,1,545.94,870.286Zm-.156-5.562h-1.025v4.139h1.074a1.1,1.1,0,0,0,1.181-1.118l.01-1.923A1.122,1.122,0,0,0,545.784,864.724Z" fill="#3cbf71"/>
        </g>
      </g>
      <g id="Grupo_63" data-name="Grupo 63">
        <g id="Grupo_62" data-name="Grupo 62">
          <path id="Trazado_97" data-name="Trazado 97" d="M549.755,870.286v-6.995h5.124v1.423h-3.387v1.334h2.85v1.412h-2.85v1.393H554.9v1.433Z" fill="#3cbf71"/>
        </g>
      </g>
      <g id="Grupo_65" data-name="Grupo 65">
        <g id="Grupo_64" data-name="Grupo 64">
          <path id="Trazado_98" data-name="Trazado 98" d="M560.945,870.4c-1.532,0-2.967-.775-2.967-2.521v-2.129a2.629,2.629,0,0,1,2.918-2.579c1.357,0,2.831.686,2.831,2.3v.333h-1.64v-.166a1.061,1.061,0,0,0-1.152-1.04,1.091,1.091,0,0,0-1.21,1.118v2.119a1.109,1.109,0,0,0,1.23,1.128,1.038,1.038,0,0,0,1.132-1.04v-.166h1.64v.343C563.727,869.717,562.292,870.4,560.945,870.4Z" fill="#3cbf71"/>
        </g>
      </g>
      <g id="Grupo_67" data-name="Grupo 67">
        <g id="Grupo_66" data-name="Grupo 66">
          <path id="Trazado_99" data-name="Trazado 99" d="M567.535,870.4c-1.561,0-2.976-.745-2.976-2.56v-2.011a2.683,2.683,0,0,1,2.928-2.658c1.552,0,3,.833,3,2.638v1.943A2.683,2.683,0,0,1,567.535,870.4Zm-.029-5.8a1.091,1.091,0,0,0-1.2,1.147V867.8a1.216,1.216,0,0,0,2.43.01v-2.07A1.135,1.135,0,0,0,567.506,864.606Z" fill="#3cbf71"/>
        </g>
      </g>
      <g id="Grupo_69" data-name="Grupo 69">
        <g id="Grupo_68" data-name="Grupo 68">
          <path id="Trazado_100" data-name="Trazado 100" d="M576.909,870.286v-4.454h-.029l-1.269,3.512h-1.2l-1.279-3.5h-.019v4.444H571.5v-6.995h2.156l1.367,3.63,1.327-3.63h2.167v6.995Z" fill="#3cbf71"/>
        </g>
      </g>
      <g id="Grupo_71" data-name="Grupo 71">
        <g id="Grupo_70" data-name="Grupo 70">
          <path id="Trazado_101" data-name="Trazado 101" d="M579.7,870.286v-6.995h5.124v1.423h-3.387v1.334h2.85v1.412h-2.85v1.393h3.407v1.433Z" fill="#3cbf71"/>
        </g>
      </g>
      <g id="Grupo_73" data-name="Grupo 73">
        <g id="Grupo_72" data-name="Grupo 72">
          <path id="Trazado_102" data-name="Trazado 102" d="M589.931,870.286l-1.376-2.472h-.79v2.472h-1.747v-6.995h3.045a2.7,2.7,0,0,1,1.669.471,2.113,2.113,0,0,1,.82,1.737,2.139,2.139,0,0,1-1.318,2.06l1.6,2.727Zm-1.093-5.621h-1.083v1.854h1.083a.909.909,0,0,0,1.015-.932C589.853,864.939,589.424,864.665,588.838,864.665Z" fill="#3cbf71"/>
        </g>
      </g>
      <g id="Grupo_75" data-name="Grupo 75">
        <g id="Grupo_74" data-name="Grupo 74">
          <path id="Trazado_103" data-name="Trazado 103" d="M595.2,870.4c-1.533,0-2.967-.775-2.967-2.521v-2.129a2.629,2.629,0,0,1,2.918-2.579c1.357,0,2.83.686,2.83,2.3v.333h-1.639v-.166a1.061,1.061,0,0,0-1.152-1.04,1.091,1.091,0,0,0-1.21,1.118v2.119a1.108,1.108,0,0,0,1.229,1.128,1.039,1.039,0,0,0,1.133-1.04v-.166h1.639v.343C597.983,869.717,596.549,870.4,595.2,870.4Z" fill="#3cbf71"/>
        </g>
      </g>
      <g id="Grupo_77" data-name="Grupo 77">
        <g id="Grupo_76" data-name="Grupo 76">
          <path id="Trazado_104" data-name="Trazado 104" d="M598.849,870.286v-6.995H600.6v6.995Z" fill="#3cbf71"/>
        </g>
      </g>
      <g id="Grupo_79" data-name="Grupo 79">
        <g id="Grupo_78" data-name="Grupo 78">
          <path id="Trazado_105" data-name="Trazado 105" d="M604.57,870.4c-1.562,0-2.977-.745-2.977-2.56v-2.011a2.683,2.683,0,0,1,2.928-2.658c1.552,0,3,.833,3,2.638v1.943A2.683,2.683,0,0,1,604.57,870.4Zm-.03-5.8a1.091,1.091,0,0,0-1.2,1.147V867.8a1.216,1.216,0,0,0,2.43.01v-2.07A1.135,1.135,0,0,0,604.54,864.606Z" fill="#3cbf71"/>
        </g>
      </g>
      <g id="Grupo_81" data-name="Grupo 81">
        <g id="Grupo_80" data-name="Grupo 80">
          <path id="Trazado_106" data-name="Trazado 106" d="M499.214,879.419v-6.994h5.124v1.422h-3.387v1.334h2.85v1.413h-2.85v1.393h3.407v1.432Z" fill="#3cbf71"/>
        </g>
      </g>
      <g id="Grupo_83" data-name="Grupo 83">
        <g id="Grupo_82" data-name="Grupo 82">
          <path id="Trazado_107" data-name="Trazado 107" d="M507.78,879.419v-6.994h1.747v6.994Z" fill="#3cbf71"/>
        </g>
      </g>
      <g id="Grupo_85" data-name="Grupo 85">
        <g id="Grupo_84" data-name="Grupo 84">
          <path id="Trazado_108" data-name="Trazado 108" d="M514.934,879.419l-2.723-4.11h-.02v4.11h-1.61v-6.994h1.688l2.645,3.953h.02v-3.953h1.62v6.994Z" fill="#3cbf71"/>
        </g>
      </g>
      <g id="Grupo_87" data-name="Grupo 87">
        <g id="Grupo_86" data-name="Grupo 86">
          <path id="Trazado_109" data-name="Trazado 109" d="M520.517,879.419H517.6v-6.994h2.9c1.551,0,2.85.834,2.85,2.462v1.972A2.565,2.565,0,0,1,520.517,879.419Zm-.156-5.562h-1.025V878h1.074a1.1,1.1,0,0,0,1.181-1.119l.01-1.922A1.122,1.122,0,0,0,520.361,873.857Z" fill="#3cbf71"/>
        </g>
      </g>
      <g id="Grupo_89" data-name="Grupo 89">
        <g id="Grupo_88" data-name="Grupo 88">
          <path id="Trazado_110" data-name="Trazado 110" d="M527.277,879.537c-1.767,0-2.879-.834-2.879-2.59v-4.522h1.747v4.394a1.123,1.123,0,0,0,1.181,1.276c.732,0,1.161-.442,1.161-1.266v-4.4H530.2v4.444A2.63,2.63,0,0,1,527.277,879.537Z" fill="#3cbf71"/>
        </g>
      </g>
      <g id="Grupo_91" data-name="Grupo 91">
        <g id="Grupo_90" data-name="Grupo 90">
          <path id="Trazado_111" data-name="Trazado 111" d="M533.8,879.537a3.407,3.407,0,0,1-2.948-1.256l1.1-1a2.2,2.2,0,0,0,1.767.893c.517,0,1.093-.176,1.093-.667,0-.382-.283-.51-.635-.647-.175-.069-.976-.285-1.21-.344-.966-.245-1.8-.765-1.8-1.952a2.369,2.369,0,0,1,2.636-2.256,3,3,0,0,1,2.615,1.089l-1.132.951a1.818,1.818,0,0,0-1.454-.667c-.508,0-.947.206-.947.677,0,.442.42.52.937.658.166.049.849.225,1.025.274,1.025.285,1.747.834,1.747,1.962C536.6,878.781,535.236,879.537,533.8,879.537Z" fill="#3cbf71"/>
        </g>
      </g>
      <g id="Grupo_93" data-name="Grupo 93">
        <g id="Grupo_92" data-name="Grupo 92">
          <path id="Trazado_112" data-name="Trazado 112" d="M540.587,873.8v5.592H538.84v-5.582h-1.981v-1.413h5.7v1.4Z" fill="#3cbf71"/>
        </g>
      </g>
      <g id="Grupo_95" data-name="Grupo 95">
        <g id="Grupo_94" data-name="Grupo 94">
          <path id="Trazado_113" data-name="Trazado 113" d="M547.166,879.419l-1.376-2.472H545v2.472h-1.747v-6.994H546.3a2.693,2.693,0,0,1,1.669.471,2.111,2.111,0,0,1,.82,1.736,2.139,2.139,0,0,1-1.318,2.06l1.6,2.727Zm-1.093-5.621h-1.084v1.854h1.084a.909.909,0,0,0,1.015-.932C547.088,874.073,546.658,873.8,546.073,873.8Z" fill="#3cbf71"/>
        </g>
      </g>
      <g id="Grupo_97" data-name="Grupo 97">
        <g id="Grupo_96" data-name="Grupo 96">
          <path id="Trazado_114" data-name="Trazado 114" d="M549.735,879.419v-6.994h1.747v6.994Z" fill="#3cbf71"/>
        </g>
      </g>
      <g id="Grupo_99" data-name="Grupo 99">
        <g id="Grupo_98" data-name="Grupo 98">
          <path id="Trazado_115" data-name="Trazado 115" d="M557.026,879.419l-.419-1.3h-2.489l-.43,1.3H552.02l2.469-7h1.874l2.44,7Zm-1.649-5.209h-.029l-.81,2.531h1.639Z" fill="#3cbf71"/>
        </g>
      </g>
      <g id="Grupo_101" data-name="Grupo 101">
        <g id="Grupo_100" data-name="Grupo 100">
          <path id="Trazado_116" data-name="Trazado 116" d="M564.751,879.419h-2.918v-6.994h2.9c1.552,0,2.85.834,2.85,2.462v1.972A2.564,2.564,0,0,1,564.751,879.419Zm-.156-5.562H563.57V878h1.074a1.1,1.1,0,0,0,1.181-1.119l.009-1.922A1.121,1.121,0,0,0,564.595,873.857Z" fill="#3cbf71"/>
        </g>
      </g>
      <g id="Grupo_103" data-name="Grupo 103">
        <g id="Grupo_102" data-name="Grupo 102">
          <path id="Trazado_117" data-name="Trazado 117" d="M568.539,879.419v-6.994h5.124v1.422h-3.386v1.334h2.849v1.413h-2.849v1.393h3.406v1.432Z" fill="#3cbf71"/>
        </g>
      </g>
      <g id="Grupo_105" data-name="Grupo 105">
        <g id="Grupo_104" data-name="Grupo 104">
          <path id="Trazado_118" data-name="Trazado 118" d="M503.7,888.548l-.42-1.3H500.8l-.429,1.3H498.7l2.469-7h1.874l2.44,7Zm-1.65-5.209h-.029l-.81,2.531h1.64Z" fill="#3cbf71"/>
        </g>
      </g>
      <g id="Grupo_107" data-name="Grupo 107">
        <g id="Grupo_106" data-name="Grupo 106">
          <path id="Trazado_119" data-name="Trazado 119" d="M509.931,888.548l-1.376-2.472h-.79v2.472h-1.747v-6.994h3.045a2.694,2.694,0,0,1,1.669.471,2.109,2.109,0,0,1,.819,1.736,2.138,2.138,0,0,1-1.317,2.06l1.6,2.727Zm-1.093-5.621h-1.083v1.854h1.083a.909.909,0,0,0,1.015-.932C509.853,883.2,509.424,882.927,508.838,882.927Z" fill="#3cbf71"/>
        </g>
      </g>
      <g id="Grupo_109" data-name="Grupo 109">
        <g id="Grupo_108" data-name="Grupo 108">
          <path id="Trazado_120" data-name="Trazado 120" d="M512.548,888.548v-6.994h5.124v1.422h-3.387v1.334h2.85v1.413h-2.85v1.393h3.406v1.432Z" fill="#3cbf71"/>
        </g>
      </g>
      <g id="Grupo_111" data-name="Grupo 111">
        <g id="Grupo_110" data-name="Grupo 110">
          <path id="Trazado_121" data-name="Trazado 121" d="M528.048,888.666c-1.767,0-2.88-.834-2.88-2.59v-4.522h1.747v4.394a1.123,1.123,0,0,0,1.181,1.276c.732,0,1.162-.442,1.162-1.266v-4.4h1.708V886A2.63,2.63,0,0,1,528.048,888.666Z" fill="#3cbf71"/>
        </g>
      </g>
      <g id="Grupo_113" data-name="Grupo 113">
        <g id="Grupo_112" data-name="Grupo 112">
          <path id="Trazado_122" data-name="Trazado 122" d="M532.1,888.548v-6.994h1.747v6.994Z" fill="#3cbf71"/>
        </g>
      </g>
      <g id="Grupo_115" data-name="Grupo 115">
        <g id="Grupo_114" data-name="Grupo 114">
          <path id="Trazado_123" data-name="Trazado 123" d="M538.048,886.125H536.6v2.423h-1.737v-6.994h3.143a2.289,2.289,0,1,1,.039,4.571Zm-.322-3.2H536.6v1.854h1.123a.9.9,0,0,0,1.015-.942C538.741,883.231,538.35,882.927,537.726,882.927Z" fill="#3cbf71"/>
        </g>
      </g>
      <g id="Grupo_117" data-name="Grupo 117">
        <g id="Grupo_116" data-name="Grupo 116">
          <path id="Trazado_124" data-name="Trazado 124" d="M545.041,888.548l-.42-1.3h-2.488l-.43,1.3h-1.669l2.47-7h1.873l2.441,7Zm-1.649-5.209h-.03l-.81,2.531h1.64Z" fill="#3cbf71"/>
        </g>
      </g>
      <g id="Grupo_118" data-name="Grupo 118">
        <path id="Trazado_125" data-name="Trazado 125" d="M520.151,883.937v.079c0-.026,0-.051,0-.076Z" fill="#3cbf71"/>
      </g>
      <g id="Grupo_120" data-name="Grupo 120">
        <g id="Grupo_119" data-name="Grupo 119">
          <path id="Trazado_126" data-name="Trazado 126" d="M523.418,887.97a3.071,3.071,0,0,0,.588-.658,2.543,2.543,0,0,0,.322-1.295v-1.942c0-1.8-1.444-2.639-3-2.639a2.683,2.683,0,0,0-2.928,2.658V886.1c0,1.815,1.415,2.561,2.977,2.561.059,0,.117,0,.176-.006v.006a1.2,1.2,0,0,1,.5.063c.143.088,1.429,1.022,1.429,1.022l.959-1.175Zm-3.148-1.351c-.009-.018-.018-.035-.026-.054l0-.007a1.181,1.181,0,0,1-.09-.462v-2.159l0,0a1.087,1.087,0,0,1,1.2-1.072,1.165,1.165,0,0,1,1.111.614c.008.018.018.036.025.054l0,.008a1.161,1.161,0,0,1,.09.462v2.158l0,0a1.087,1.087,0,0,1-1.2,1.072A1.163,1.163,0,0,1,520.27,886.619Z" fill="#3cbf71"/>
        </g>
      </g>
    </g>
  </g>
</svg>
