<svg xmlns="http://www.w3.org/2000/svg" width="49.178" height="30.738" viewBox="0 0 49.178 30.738">
  <path id="Trazado_19" data-name="Trazado 19" d="M135.029,1447.054a1.1,1.1,0,0,1,1.1-.763,39.64,39.64,0,0,1,8.9,1.343,9.758,9.758,0,0,1,1.537.661,1.25,1.25,0,0,1,.715,1.514,5.754,5.754,0,0,0-.065.583h.5c2.416,0,4.833.008,7.25-.012a1.425,1.425,0,0,0,.777-.269,7.227,7.227,0,0,1,5.089-1.617,12.03,12.03,0,0,1,3.479,1.029c1.707.721,3.424,1.418,5.138,2.122.144.059.295.1.453.15-.028-.9.153-1.159.993-1.484a30.361,30.361,0,0,1,8.554-1.811c1.163-.095,2.332-.128,3.5-.165a1.063,1.063,0,0,1,1.252,1.208q0,9.029,0,18.058a1.078,1.078,0,0,1-1.235,1.234c-1.873.006-3.746,0-5.618,0-.864,0-1.141-.207-1.389-1.021l-.2-.656c-.524.35-1,.658-1.462.99a.412.412,0,0,0-.1.328,3.45,3.45,0,0,1-3.2,3.728.643.643,0,0,0-.43.269,3.888,3.888,0,0,1-3.808,1.921.468.468,0,0,0-.528.255,3.643,3.643,0,0,1-4.1,1.762.41.41,0,0,0-.308.026,4.466,4.466,0,0,1-3.836.3,9.915,9.915,0,0,1-3.33-1.858c-2.545-1.992-5.118-3.95-7.611-6.006-1.279-1.054-2.41-2.288-3.648-3.479-.067.2-.137.416-.212.63a1,1,0,0,1-1,.741c-2.033,0-4.066,0-6.1.005a1.229,1.229,0,0,1-1.057-.7Zm11.972,5.4c-.941,3.469-1.869,6.874-2.781,10.284a.674.674,0,0,0,.083.547,43.6,43.6,0,0,0,3.587,3.605c2.979,2.444,6.039,4.793,9.113,7.118a7.829,7.829,0,0,0,2.1.888,4.229,4.229,0,0,0,.988.085c-.153-.175-.21-.247-.274-.311q-1.449-1.47-2.9-2.94c-.37-.377-.737-.757-1.088-1.151a1.013,1.013,0,0,1,.01-1.464,1.023,1.023,0,0,1,1.461.049c.139.133.264.28.4.415q2.316,2.3,4.633,4.6a.994.994,0,0,0,1.318.149,7.667,7.667,0,0,0,.976-.861c-.925-.968-1.754-1.834-2.582-2.7-.674-.706-1.35-1.411-2.019-2.121a1.047,1.047,0,0,1-.1-1.57c.461-.448,1.057-.383,1.6.178.222.231.433.472.66.7,1.336,1.333,2.658,2.681,4.021,3.986a1.641,1.641,0,0,0,2.316-.125c.268-.271.3-.474-.01-.786-1.829-1.815-3.635-3.652-5.439-5.491a1.027,1.027,0,1,1,1.456-1.43c.5.5.976,1.015,1.473,1.513,1.39,1.4,2.786,2.782,4.175,4.176a.931.931,0,0,0,1,.292,1.271,1.271,0,0,0,.827-1.826,3.863,3.863,0,0,0-.578-.877,17.285,17.285,0,0,0-1.624-1.7q-4.6-3.929-9.242-7.8a.567.567,0,0,0-.46-.026c-.5.167-.976.407-1.481.543a1.551,1.551,0,0,0-.817.518,4.968,4.968,0,0,1-5.371,1.751,2.684,2.684,0,0,1-2.08-3.354,8.511,8.511,0,0,1,1.527-3.33c.365-.515.776-1,1.193-1.528Zm26.272,13.9c.547-.367,1.075-.7,1.574-1.072a.51.51,0,0,0,.155-.449q-1.808-5.028-3.657-10.04a.736.736,0,0,0-.369-.386q-4.171-1.7-8.353-3.369a5.024,5.024,0,0,0-4.83.183,14.208,14.208,0,0,0-4.511,4.373,10.886,10.886,0,0,0-.92,2.143c-.119.335-.083.751.366.86a4.928,4.928,0,0,0,1.453.2,3.358,3.358,0,0,0,2.365-1.56,1.987,1.987,0,0,1,.737-.643c.919-.354,1.875-.61,2.8-.955a1.254,1.254,0,0,1,1.437.3c.783.731,1.59,1.438,2.407,2.13C167.1,1460.755,170.513,1463.157,173.273,1466.358Zm-.9-14.407c.245.572.5,1.089.69,1.626q2.309,6.376,4.59,12.763c.116.325.243.453.595.44.751-.028,1.5-.009,2.256-.009h1.63V1450.4A34.037,34.037,0,0,0,172.374,1451.951Zm-30.912,12.766c.374-1.239.751-2.443,1.1-3.655a87.624,87.624,0,0,0,2.6-10.755c.063-.408-.063-.567-.4-.636-1.643-.332-3.282-.683-4.931-.972-.89-.155-1.8-.2-2.717-.3v16.314Z" transform="translate(-135.029 -1446.288)" fill="#c7813b"/>
</svg>
