<svg xmlns="http://www.w3.org/2000/svg" width="41.425" height="41.66" viewBox="0 0 41.425 41.66">
  <g id="Grupo_3" data-name="Grupo 3" transform="translate(-494.193 -1315.417)">
    <path id="Trazado_20" data-name="Trazado 20" d="M516.2,1315.417c.758.1,1.52.186,2.275.315a20.789,20.789,0,1,1-23.886,24.534c-.172-.9-.265-1.817-.4-2.726v-2.6c.132-.922.232-1.85.4-2.765a20.763,20.763,0,0,1,16.7-16.435c.768-.127,1.543-.214,2.315-.32Zm-1.277,1.22a19.6,19.6,0,1,0,19.48,19.619A19.552,19.552,0,0,0,514.923,1316.637Z" fill="#c7813b"/>
    <path id="Trazado_21" data-name="Trazado 21" d="M500.8,1326.883l7.629,4.674c.009-.192.016-.33.022-.468a15.941,15.941,0,0,1,.116-2.267,4.337,4.337,0,0,1,4.051-3.592,35.173,35.173,0,0,1,4.567,0,4.342,4.342,0,0,1,4.125,4.194c.09,1.566.055,3.144-.006,4.713a6.108,6.108,0,0,1-1.718,3.936c-.053.057-.1.118-.179.21l10.245,6.278c.241-.491.488-.951.7-1.427a17.006,17.006,0,0,0-11.26-23.351,16.435,16.435,0,0,0-11.609,1.189c-.085.041-.167.089-.254.124a.6.6,0,0,1-.823-.279.574.574,0,0,1,.3-.813,20.608,20.608,0,0,1,2.57-1.07c7.3-2.136,13.673-.511,18.957,5a16.764,16.764,0,0,1,4.629,10.073,17.952,17.952,0,0,1-7.01,16.73c-.094.076-.193.147-.292.218-.383.276-.736.264-.962-.032s-.149-.636.226-.938c.5-.407.995-.831,1.505-1.23a.676.676,0,0,0,.264-.739,2.677,2.677,0,0,0-1.845-2.169q-2.718-.979-5.436-1.956a2.5,2.5,0,0,1-1.763-2.459c0-.878.057-1.756.076-2.634a.334.334,0,0,0-.129-.251q-3.861-2.375-7.731-4.734c-.007,0-.024.008-.151.053a9.269,9.269,0,0,0,.491,1.787,8.145,8.145,0,0,0,1.255,1.817,3.014,3.014,0,0,1,.9,2.181c-.015.555,0,1.112,0,1.667a2.57,2.57,0,0,1-1.851,2.61q-2.661.958-5.325,1.907a2.688,2.688,0,0,0-1.882,2.229.629.629,0,0,0,.222.637,16.8,16.8,0,0,0,18.917,2.794c.072-.035.142-.078.216-.11a.61.61,0,0,1,.833.25.586.586,0,0,1-.31.844,24.763,24.763,0,0,1-2.342.992,18.094,18.094,0,0,1-23.142-11.812,18.3,18.3,0,0,1,6.6-20.107c.055-.04.107-.083.164-.119a.607.607,0,0,1,.861.129.585.585,0,0,1-.128.831c-.34.288-.7.546-1.045.833A16.846,16.846,0,0,0,500.8,1326.883Zm1.291,20.4a.712.712,0,0,0,.082-.123,3.969,3.969,0,0,1,2.612-2.514c1.767-.613,3.524-1.257,5.282-1.9a1.315,1.315,0,0,0,.977-1.378c.011-.609,0-1.219,0-1.829a1.445,1.445,0,0,0-.478-1.119,6.527,6.527,0,0,1-2.113-5.082.548.548,0,0,0-.318-.541q-3.162-1.923-6.312-3.865c-.548-.336-1.1-.667-1.648-1A16.96,16.96,0,0,0,502.1,1347.285Zm16.223-9.67a4.828,4.828,0,0,0,1.749-3.31,45.964,45.964,0,0,0,.045-4.753,3.126,3.126,0,0,0-2.962-3.1,32.925,32.925,0,0,0-4.486,0,3.22,3.22,0,0,0-2.993,3.34c-.012.718.012,1.437-.009,2.155a.568.568,0,0,0,.332.571q3.717,2.261,7.422,4.542C517.714,1337.242,518.011,1337.426,518.318,1337.615Zm10.712,7.992-10.27-6.292c0,.694,0,1.288,0,1.882a1.428,1.428,0,0,0,1.152,1.624c1.8.644,3.6,1.286,5.394,1.941a3.782,3.782,0,0,1,2.267,2.231c.039.1.085.192.152.343Z" fill="#c7813b"/>
  </g>
</svg>
