<svg xmlns="http://www.w3.org/2000/svg" width="43.984" height="44.006" viewBox="0 0 43.984 44.006">
  <g id="Grupo_1" data-name="Grupo 1" transform="translate(-312.928 -1568.421)">
    <path id="Trazado_1" data-name="Trazado 1" d="M356.912,1585.176c-.257.265-.5.547-.772.79-.72.634-1.46,1.245-2.183,1.877-.294.257-.594.474-1,.3-.439-.185-.45-.58-.441-.981.008-.356,0-.713,0-1.138-.548,0-1.071.005-1.594,0-2.071-.024-1.545.257-2.692-1.442-1.418-2.1-2.812-4.215-4.217-6.323-.087-.13-.179-.257-.3-.434-.105.148-.2.267-.277.39l-7.67,11.505c-.055.083-.11.167-.167.249a.751.751,0,0,1-1.418-.129c-.541-1.231-1.062-2.47-1.592-3.7q-3.117-7.275-6.234-14.55c-.055-.129-.117-.256-.213-.461-.086.195-.15.326-.2.462l-8.556,21.708c-.279.708-.412.8-1.179.8h-2.836c-.14,0-.279-.012-.439-.02v-1.448h2.179c.97,0,.969,0,1.319-.89l8.875-22.551c.021-.053.046-.105.066-.159a.778.778,0,0,1,.744-.6.77.77,0,0,1,.727.568c.452,1.066.912,2.129,1.368,3.194l6.637,15.5c.057.131.119.259.2.443.109-.151.2-.271.283-.4q3.8-5.7,7.606-11.393a1.322,1.322,0,0,1,.592-.513c.43-.148.714.128.947.479,1.622,2.446,3.282,4.866,4.859,7.34a1.615,1.615,0,0,0,1.776.93,9.665,9.665,0,0,1,1.409-.012c0-.489-.007-.929,0-1.369a.736.736,0,0,1,1.207-.662c.923.574,1.836,1.166,2.743,1.766a3.047,3.047,0,0,1,.442.451Zm-1.961-.125-.928-.586v1.387Z" fill="#c7813b"/>
    <path id="Trazado_2" data-name="Trazado 2" d="M322.962,1612.427a1.037,1.037,0,0,1-.525-1.036q.014-11.431.007-22.864c0-.818.221-1.035,1.05-1.036h5.242c.808,0,1.032.216,1.032,1.006q0,11.454.007,22.907a.981.981,0,0,1-.539,1.022Zm5.307-1.485v-21.953H323.93v21.953Z" fill="#c7813b"/>
    <path id="Trazado_3" data-name="Trazado 3" d="M340.581,1612.427a.962.962,0,0,1-.538-.979q.014-8.917.007-17.836c0-.747.23-.983.968-.985q2.685-.006,5.371,0c.745,0,.984.24.985.972q0,8.917.007,17.835a1.017,1.017,0,0,1-.525.993Zm5.3-1.484v-16.819h-4.343v16.819Z" fill="#c7813b"/>
    <path id="Trazado_4" data-name="Trazado 4" d="M331.729,1612.427a1.111,1.111,0,0,1-.5-1.058q.011-7.007.005-14.011c0-.839.236-1.075,1.073-1.075q2.6,0,5.2,0c.838,0,1.074.236,1.074,1.075q0,7,.005,14.011a1.113,1.113,0,0,1-.5,1.058Zm1.009-14.655v13.157h4.34v-13.157Z" fill="#c7813b"/>
    <path id="Trazado_5" data-name="Trazado 5" d="M314.2,1612.427a.922.922,0,0,1-.558-.966q.01-6,.005-11.99c0-.741.242-.975.982-.976q2.685,0,5.37,0c.729,0,.983.252.983.981q0,5.973.006,11.947a1.046,1.046,0,0,1-.514,1Zm5.295-12.443h-4.347v10.946h4.347Z" fill="#c7813b"/>
    <path id="Trazado_6" data-name="Trazado 6" d="M349.348,1612.427a1.086,1.086,0,0,1-.516-1.046c.012-2.733.006-5.466.007-8.2,0-.781.24-1.02,1.03-1.022q2.639,0,5.279,0c.8,0,1.026.219,1.027,1.017,0,2.747,0,5.495.005,8.242a.941.941,0,0,1-.558,1.008Zm.99-8.774v7.274h4.332v-7.274Z" fill="#c7813b"/>
    <path id="Trazado_7" data-name="Trazado 7" d="M354.951,1585.051l-.928.8v-1.387Z" fill="#c7813b"/>
  </g>
</svg>
