<svg xmlns="http://www.w3.org/2000/svg" width="35.77" height="35.776" viewBox="0 0 35.77 35.776">
  <g id="Grupo_10" data-name="Grupo 10" transform="translate(-141.733 -1052)">
    <path id="Trazado_51" data-name="Trazado 51" d="M159.614,1054.968c-1.4,1.187-2.785,2.354-4.165,3.522q-3.533,2.988-7.07,5.974a.663.663,0,0,0-.26.575q.009,9.357,0,18.714a1.3,1.3,0,0,0,1.483,1.462c2.049,0,4.1,0,6.146,0a1.26,1.26,0,0,1,1.256.919,1.182,1.182,0,0,1-.474,1.368,1.74,1.74,0,0,1-.855.254c-2.075.021-4.15.019-6.225.009a3.816,3.816,0,0,1-3.883-3.9q-.012-8.239,0-16.479v-.526c-.34.283-.629.522-.917.763-.255.213-.5.432-.763.642a1.277,1.277,0,1,1-1.643-1.952q2.338-1.992,4.689-3.97,5.834-4.935,11.668-9.868a1.33,1.33,0,0,1,2.048.008q8.135,6.877,16.269,13.757a1.322,1.322,0,0,1,.541,1.4,1.22,1.22,0,0,1-.981.94,1.334,1.334,0,0,1-1.205-.376q-3.8-3.227-7.614-6.444l-7.858-6.649C159.753,1055.07,159.7,1055.033,159.614,1054.968Z" fill="#c7813b"/>
    <path id="Trazado_52" data-name="Trazado 52" d="M167.259,1087.77a10.217,10.217,0,1,1,10.244-10.131A10.224,10.224,0,0,1,167.259,1087.77Zm.028-2.555a7.662,7.662,0,1,0-7.665-7.66A7.683,7.683,0,0,0,167.287,1085.215Z" fill="#c7813b"/>
    <path id="Trazado_53" data-name="Trazado 53" d="M165.976,1072.505c.142-.847.577-1.307,1.25-1.336.692-.031,1.17.405,1.366,1.255.069.014.147.024.222.044a1.277,1.277,0,0,1-.288,2.528c-.585.009-1.17,0-1.756,0-.474,0-.756.244-.759.633s.281.632.749.644a12.715,12.715,0,0,1,1.671.057,3.148,3.148,0,0,1,2.678,2.943,3.193,3.193,0,0,1-2.264,3.242l-.227.074c-.268.959-.668,1.356-1.355,1.345-.654-.011-1.1-.441-1.285-1.249-.11-.028-.226-.053-.338-.088a1.27,1.27,0,0,1,.323-2.488c.612-.017,1.224,0,1.836-.006.47,0,.757-.248.76-.634s-.284-.632-.751-.642a13.171,13.171,0,0,1-1.593-.041,3.183,3.183,0,0,1-.452-6.215Z" fill="#c7813b"/>
  </g>
</svg>
