<svg xmlns="http://www.w3.org/2000/svg" width="17.672" height="17.67" viewBox="0 0 17.672 17.67">
  <path id="Trazado_128" data-name="Trazado 128" d="M320.411,2011.4a8.835,8.835,0,1,1-8.84,8.827A8.84,8.84,0,0,1,320.411,2011.4Zm.953,7.232c0-.591-.02-1.155.008-1.718a.642.642,0,0,1,.592-.63c.372-.048.751-.038,1.126-.05.139-.005.278,0,.42,0v-1.915a9.717,9.717,0,0,0-2.222-.026,2.341,2.341,0,0,0-2.059,1.928,6.158,6.158,0,0,0-.093,1.139c-.015.417,0,.834,0,1.274H317.3v2.139h1.836v5.448h2.2v-5.455h1.835l.274-2.133Z" transform="translate(-311.571 -2011.403)" fill="#c7813b"/>
</svg>
