<svg xmlns="http://www.w3.org/2000/svg" width="39.884" height="39.633" viewBox="0 0 39.884 39.633">
  <g id="Grupo_4" data-name="Grupo 4" transform="translate(-314.978 -1314.828)">
    <path id="Trazado_22" data-name="Trazado 22" d="M314.978,1327.438v-.468a4.651,4.651,0,0,1,.578-.5q9.326-5.7,18.653-11.406a1.174,1.174,0,0,1,1.415-.005q7.506,4.616,15.036,9.191,1.86,1.135,3.719,2.272c.588.362.636.773.159,1.26-.236.241-.463.494-.718.714a7.276,7.276,0,0,0-1.786,2.46,4.216,4.216,0,0,0-.519,2.146,1.914,1.914,0,0,1-1.074,1.846.527.527,0,0,0-.234.373q-.018,4.83,0,9.659a.524.524,0,0,0,.231.369,2.007,2.007,0,0,1,1.087,1.807,4.7,4.7,0,0,0,.008.544.4.4,0,0,0,.146.275,2.056,2.056,0,0,1,1.176,2.14c-.014.234.049.338.306.377a1.958,1.958,0,0,1,1.694,1.971c.006.337,0,.675,0,1.012,0,.776-.195.977-.96.977q-18.982,0-37.965.005a.991.991,0,0,1-.953-.458v-1.948c.05-.116.1-.233.149-.35a1.8,1.8,0,0,1,1.393-1.176c.433-.066.482-.248.462-.605a1.786,1.786,0,0,1,.879-1.747.823.823,0,0,0,.453-.9,1.976,1.976,0,0,1,1.111-1.941.471.471,0,0,0,.2-.349q.017-4.825,0-9.651a.571.571,0,0,0-.253-.4,1.992,1.992,0,0,1-1.064-1.778c0-.3.007-.6-.005-.9a1.144,1.144,0,0,0-.08-.412,9.176,9.176,0,0,0-2.494-3.646A8.176,8.176,0,0,1,314.978,1327.438Zm5.052,1.061h29.749c-.121-.085-.179-.132-.242-.171q-7.189-4.427-14.376-8.858a.447.447,0,0,0-.552.048q-6.494,4-12.988,8Zm33.5,24.607c0-.2,0-.359,0-.514-.009-.552-.234-.785-.776-.8-.273-.006-.545,0-.818,0q-6.4,0-12.811,0c-.575,0-.867-.229-.872-.662s.283-.664.856-.669h12.4a6.518,6.518,0,0,0-.006-.771c-.049-.4-.332-.563-.92-.563H319.241a2,2,0,0,0-.388.024.608.608,0,0,0-.534.582c-.018.228,0,.458,0,.727h12.26a3.377,3.377,0,0,1,.428.013.618.618,0,0,1,.576.622.61.61,0,0,1-.53.664,2.474,2.474,0,0,1-.5.031q-6.6,0-13.2,0c-.142,0-.286-.005-.427.008a.619.619,0,0,0-.6.6,6.271,6.271,0,0,0-.005.7Zm-16.613-5.334c0-.162,0-.3,0-.441a2.031,2.031,0,0,1,1.145-2,.481.481,0,0,0,.178-.367q.015-4.807,0-9.616a.518.518,0,0,0-.218-.381,2.02,2.02,0,0,1-1.1-1.876c0-.187,0-.373,0-.559h-4v.555a2.023,2.023,0,0,1-1.1,1.878.52.52,0,0,0-.221.38c-.012,3.206-.008,6.411-.013,9.616a.4.4,0,0,0,.248.418,1.919,1.919,0,0,1,1.084,1.759c0,.2,0,.409,0,.638Zm16.178-20.458c-.087-.058-.149-.1-.214-.144q-8.85-5.4-17.7-10.81a.453.453,0,0,0-.554.016q-7.85,4.8-15.705,9.589c-.727.444-1.453.89-2.154,1.32l1,1.029c.1-.059.215-.12.325-.188q8.1-4.984,16.2-9.98a1.062,1.062,0,0,1,1.278.011q7.74,4.789,15.5,9.547c.351.216.777.575,1.094.509C352.509,1328.141,352.768,1327.652,353.094,1327.314Zm-34.371,2.55c.172.347.339.627.451.927a.568.568,0,0,0,.642.4q15.1-.015,30.208-.008a1.238,1.238,0,0,0,.272-.005.345.345,0,0,0,.213-.117c.206-.383.395-.774.606-1.194Zm4.863,15.256v-9.931h-2.594v9.931Zm4.042-9.936v9.92h2.6v-9.92Zm14.589,0h-2.612v9.915h2.612Zm6.629,9.932v-9.927h-2.605v9.927Zm-23.311.462c.793-.106.75-.619.747-1.162-.016-2.853-.021-5.706,0-8.558,0-.535-.046-.958-.61-1.152-.024-.008-.048-.015-.012,0-.711.141-.73.616-.726,1.173.02,2.878.009,5.757.009,8.635v.722Zm18.025-.347.663.392.664-.394v-.416c0-2.982-.012-5.965.01-8.947,0-.562-.026-1.029-.665-1.15-.624.12-.694.546-.685,1.111.033,2.061.013,4.123.013,6.185Zm-18.615-12.7h-5.3c0,.229-.009.434,0,.638a.624.624,0,0,0,.663.659q1.98.016,3.962,0a.641.641,0,0,0,.677-.651C324.956,1332.974,324.945,1332.767,324.945,1332.532Zm1.333-.007c0,.242-.014.46,0,.676a.635.635,0,0,0,.66.627q2,.015,4,0a.614.614,0,0,0,.639-.64c.013-.215,0-.431,0-.662Zm17.282.006h-5.313c0,.177,0,.33,0,.483.007.6.222.819.821.82q1.845.006,3.69,0c.546,0,.789-.241.8-.77C343.563,1332.9,343.56,1332.73,343.56,1332.531Zm1.344,0c-.007.118-.015.219-.016.319a2.945,2.945,0,0,0,.006.388.633.633,0,0,0,.653.593q2,.015,4,0a.617.617,0,0,0,.643-.637c.013-.215,0-.431,0-.663Zm-19.958,15.248c0-.2.008-.4,0-.6a.65.65,0,0,0-.678-.7q-1.984-.021-3.97,0a.635.635,0,0,0-.656.673c-.01.2,0,.407,0,.629Zm1.33-.006h5.309c0-.217.007-.409,0-.6a.643.643,0,0,0-.674-.7q-1.986-.021-3.97,0a.646.646,0,0,0-.662.675C326.266,1347.341,326.276,1347.535,326.276,1347.77Zm11.973-.007h5.31c0-.214.006-.394,0-.574a.662.662,0,0,0-.7-.718q-1.965-.018-3.931,0a.643.643,0,0,0-.675.695C338.242,1347.36,338.249,1347.552,338.249,1347.763Zm6.639.006h5.306c0-.233.01-.438,0-.643a.624.624,0,0,0-.638-.65q-2-.024-4.009,0a.644.644,0,0,0-.656.679C344.88,1347.347,344.888,1347.54,344.888,1347.769Z" fill="#c7813b"/>
    <path id="Trazado_23" data-name="Trazado 23" d="M337.569,1324.235a2.652,2.652,0,1,1-2.645-2.7A2.655,2.655,0,0,1,337.569,1324.235Zm-1.327-.037a1.325,1.325,0,1,0-2.65.023,1.325,1.325,0,0,0,2.65-.023Z" fill="#c7813b"/>
  </g>
</svg>
