<svg xmlns="http://www.w3.org/2000/svg" width="17.588" height="17.597" viewBox="0 0 17.588 17.597">
  <g id="Grupo_133" data-name="Grupo 133" transform="translate(-369.208 -2011.44)">
    <path id="Trazado_129" data-name="Trazado 129" d="M386.8,2019.687v1.1c-.014.113-.03.226-.042.339a8.822,8.822,0,0,1-7.223,7.774c-.325.059-.655.092-.983.137h-1.1a.987.987,0,0,0-.132-.029,8.484,8.484,0,0,1-5.069-2.125,8.59,8.59,0,0,1-3-7.53,8.344,8.344,0,0,1,2.156-4.933,8.614,8.614,0,0,1,6.446-2.977,8.338,8.338,0,0,1,4.646,1.237,8.673,8.673,0,0,1,4.164,6.041C386.721,2019.04,386.752,2019.365,386.8,2019.687Zm-8.8-4.529v.062c-.721,0-1.443-.013-2.164,0a3.009,3.009,0,0,0-1.641.483,2.716,2.716,0,0,0-1.2,2.332c-.029,1.465-.018,2.932,0,4.4a2.894,2.894,0,0,0,.481,1.607,2.718,2.718,0,0,0,2.331,1.2c1.465.03,2.932.023,4.4,0a2.808,2.808,0,0,0,1.943-.747,2.844,2.844,0,0,0,.87-2.1c.029-1.2.03-2.405.031-3.608a10.5,10.5,0,0,0-.061-1.063,2.653,2.653,0,0,0-2.477-2.47C379.671,2015.19,378.833,2015.19,378,2015.158Z" fill="#c7813b"/>
    <path id="Trazado_130" data-name="Trazado 130" d="M373.841,2020.217c.022-.757.025-1.53.073-2.3a1.749,1.749,0,0,1,.936-1.541,2.368,2.368,0,0,1,1.113-.25c1.442,0,2.885-.016,4.326.029a1.736,1.736,0,0,1,1.791,1.795q.06,2.29,0,4.584a1.732,1.732,0,0,1-1.781,1.786q-2.291.06-4.583,0a1.758,1.758,0,0,1-1.8-1.8C373.864,2021.757,373.863,2020.995,373.841,2020.217Zm4.153-2.572a2.592,2.592,0,1,0,2.6,2.6A2.588,2.588,0,0,0,377.994,2017.645Zm2.7.5a.6.6,0,1,0-.6-.593A.6.6,0,0,0,380.7,2018.143Z" fill="#c7813b"/>
  </g>
</svg>
