<svg xmlns="http://www.w3.org/2000/svg" width="17.109" height="17.109" viewBox="0 0 17.109 17.109">
  <path id="Trazado_132" data-name="Trazado 132" d="M357.759,2020.237a8.555,8.555,0,0,0-8.485-8.553h-.142a8.553,8.553,0,0,0-8.482,8.487v.131a8.555,8.555,0,0,0,17.109-.065Zm-11.277,4.923c0,.293-.138.423-.434.424h-1.4a.368.368,0,0,1-.421-.419q0-1.587,0-3.174v-3.123c0-.321.123-.448.442-.45q.693,0,1.386,0c.3,0,.431.13.431.427Q346.485,2022,346.482,2025.16Zm-1.136-7.356a1.456,1.456,0,1,1,1.463-1.444A1.458,1.458,0,0,1,345.346,2017.8Zm8.744,7.78h-1.469c-.3,0-.42-.109-.42-.407q0-1.545,0-3.09a3.28,3.28,0,0,0-.129-1.089.99.99,0,0,0-.832-.725,1.1,1.1,0,0,0-1.165.475,2.034,2.034,0,0,0-.321,1.14c0,1.075,0,2.15,0,3.224,0,.376-.1.472-.476.472H347.91c-.29,0-.41-.118-.41-.4q0-3.183,0-6.364c0-.279.116-.4.4-.4.49,0,.98,0,1.47,0,.276,0,.391.12.395.4,0,.142,0,.285,0,.427a2.445,2.445,0,0,1,2.185-.937,2.408,2.408,0,0,1,1.718.611,2.755,2.755,0,0,1,.75,1.585,7.15,7.15,0,0,1,.1,1.231q0,1.711,0,3.424C354.516,2025.471,354.4,2025.584,354.09,2025.584Z" transform="translate(-340.65 -2011.684)" fill="#c7813b"/>
</svg>
