<svg xmlns="http://www.w3.org/2000/svg" width="150.8" height="61.458" viewBox="0 0 150.8 61.458">
  <g id="Grupo_132" data-name="Grupo 132" transform="translate(-259.757 -82.965)">
    <g id="Grupo_41" data-name="Grupo 41">
      <g id="Grupo_39" data-name="Grupo 39">
        <g id="Grupo_15" data-name="Grupo 15">
          <g id="Grupo_13" data-name="Grupo 13">
            <path id="Trazado_56" data-name="Trazado 56" d="M284.037,91.584l3.267,3.267a3.591,3.591,0,0,0,5.079,0l9.829-9.828,4.019,4.018-11,11a8.126,8.126,0,0,1-11.493,0l-4.079-4.079Z" fill="#fff"/>
          </g>
          <g id="Grupo_14" data-name="Grupo 14">
            <path id="Trazado_57" data-name="Trazado 57" d="M292.131,83.49a4.435,4.435,0,1,1-2.094-.525A4.434,4.434,0,0,1,292.131,83.49Z" fill="#fff"/>
          </g>
        </g>
        <g id="Grupo_20" data-name="Grupo 20">
          <g id="Grupo_17" data-name="Grupo 17">
            <g id="Grupo_16" data-name="Grupo 16">
              <path id="Trazado_58" data-name="Trazado 58" d="M268.037,108.249l4.465-1.187a3.593,3.593,0,0,0,2.548-4.395l-3.573-13.433,5.492-1.461,4,15.036a8.128,8.128,0,0,1-5.765,9.944l-5.575,1.483Z" fill="#fff"/>
            </g>
          </g>
          <g id="Grupo_19" data-name="Grupo 19">
            <g id="Grupo_18" data-name="Grupo 18">
              <path id="Trazado_59" data-name="Trazado 59" d="M265.094,97.188a4.434,4.434,0,1,1-1.5,1.548A4.433,4.433,0,0,1,265.094,97.188Z" fill="#fff"/>
            </g>
          </g>
        </g>
        <g id="Grupo_25" data-name="Grupo 25">
          <g id="Grupo_22" data-name="Grupo 22">
            <g id="Grupo_21" data-name="Grupo 21">
              <path id="Trazado_60" data-name="Trazado 60" d="M274.485,130.423l1.211-4.459a3.592,3.592,0,0,0-2.525-4.408l-13.414-3.643,1.49-5.485,15.015,4.078a8.128,8.128,0,0,1,5.713,9.973l-1.512,5.567Z" fill="#fff"/>
            </g>
          </g>
          <g id="Grupo_24" data-name="Grupo 24">
            <g id="Grupo_23" data-name="Grupo 23">
              <path id="Trazado_61" data-name="Trazado 61" d="M263.439,127.422a4.435,4.435,0,1,1,.585,2.078A4.432,4.432,0,0,1,263.439,127.422Z" fill="#fff"/>
            </g>
          </g>
        </g>
        <g id="Grupo_28" data-name="Grupo 28">
          <g id="Grupo_26" data-name="Grupo 26">
            <path id="Trazado_62" data-name="Trazado 62" d="M297.024,135.8l-3.267-3.267a3.591,3.591,0,0,0-5.079,0l-9.829,9.829-4.019-4.019,11-11a8.126,8.126,0,0,1,11.493,0l4.079,4.079Z" fill="#fff"/>
          </g>
          <g id="Grupo_27" data-name="Grupo 27">
            <path id="Trazado_63" data-name="Trazado 63" d="M288.931,143.9a4.434,4.434,0,1,1,2.093.525A4.432,4.432,0,0,1,288.931,143.9Z" fill="#fff"/>
          </g>
        </g>
        <g id="Grupo_33" data-name="Grupo 33">
          <g id="Grupo_30" data-name="Grupo 30">
            <g id="Grupo_29" data-name="Grupo 29">
              <path id="Trazado_64" data-name="Trazado 64" d="M313.024,119.139l-4.465,1.187a3.593,3.593,0,0,0-2.548,4.4l3.573,13.433-5.492,1.461-4-15.036a8.128,8.128,0,0,1,5.765-9.944l5.575-1.482Z" fill="#fff"/>
            </g>
          </g>
          <g id="Grupo_32" data-name="Grupo 32">
            <g id="Grupo_31" data-name="Grupo 31">
              <path id="Trazado_65" data-name="Trazado 65" d="M315.967,130.2a4.436,4.436,0,1,1,1.5-1.549A4.433,4.433,0,0,1,315.967,130.2Z" fill="#fff"/>
            </g>
          </g>
        </g>
        <g id="Grupo_38" data-name="Grupo 38">
          <g id="Grupo_35" data-name="Grupo 35">
            <g id="Grupo_34" data-name="Grupo 34">
              <path id="Trazado_66" data-name="Trazado 66" d="M306.576,96.965l-1.211,4.459a3.592,3.592,0,0,0,2.525,4.408l13.414,3.643-1.49,5.485L304.8,110.882a8.128,8.128,0,0,1-5.713-9.973l1.512-5.567Z" fill="#fff"/>
            </g>
          </g>
          <g id="Grupo_37" data-name="Grupo 37">
            <g id="Grupo_36" data-name="Grupo 36">
              <path id="Trazado_67" data-name="Trazado 67" d="M317.623,99.966a4.436,4.436,0,1,1-.586-2.078A4.435,4.435,0,0,1,317.623,99.966Z" fill="#fff"/>
            </g>
          </g>
        </g>
      </g>
      <g id="Grupo_40" data-name="Grupo 40">
        <path id="Trazado_68" data-name="Trazado 68" d="M328.943,106.683V103.9c0-2.191,1.581-3.641,3.975-3.641s3.961,1.45,3.961,3.641v.407h-2.6v-.363a1.366,1.366,0,0,0-2.728,0v2.7a1.366,1.366,0,0,0,2.728,0v-.362h2.6v.406c0,2.191-1.567,3.642-3.961,3.642S328.943,108.874,328.943,106.683Z" fill="#fff"/>
        <path id="Trazado_69" data-name="Trazado 69" d="M338.214,106.61v-2.64c0-2.234,1.61-3.714,4.048-3.714s4.033,1.48,4.033,3.714v2.64c0,2.235-1.6,3.715-4.033,3.715S338.214,108.845,338.214,106.61Zm5.484-.043v-2.554a1.438,1.438,0,0,0-2.872,0v2.554a1.438,1.438,0,0,0,2.872,0Z" fill="#fff"/>
        <path id="Trazado_70" data-name="Trazado 70" d="M347.964,100.43H351.4l1.625,4.657h.159l1.625-4.657h3.337v9.721h-2.611v-4.875l.116-.711h-.189l-1.451,3.975H352.1l-1.451-3.975h-.188l.116.711v4.875h-2.612Z" fill="#fff"/>
        <path id="Trazado_71" data-name="Trazado 71" d="M359.978,106.756V100.43h2.6v6.282a1.3,1.3,0,0,0,2.6,0V100.43h2.6v6.326c0,2.147-1.552,3.569-3.888,3.569C361.516,110.325,359.978,108.9,359.978,106.756Z" fill="#fff"/>
        <path id="Trazado_72" data-name="Trazado 72" d="M369.6,100.43h3.032l2.321,5.353h.189l-.1-.71V100.43h2.6v9.721h-3.018l-2.336-5.354h-.189l.116.711v4.643H369.6Z" fill="#fff"/>
        <path id="Trazado_73" data-name="Trazado 73" d="M379.58,100.43h2.611v9.721H379.58Z" fill="#fff"/>
        <path id="Trazado_74" data-name="Trazado 74" d="M391.927,104.129v2.322a3.6,3.6,0,0,1-3.946,3.7h-3.845V100.43h3.845A3.6,3.6,0,0,1,391.927,104.129Zm-2.6.059a1.286,1.286,0,0,0-1.436-1.364h-1.147v4.933h1.147a1.287,1.287,0,0,0,1.436-1.364Z" fill="#fff"/>
        <path id="Trazado_75" data-name="Trazado 75" d="M398.34,108.613H395.7l-.349,1.538H392.58l2.655-9.721h3.671l2.655,9.721h-2.872Zm-.522-2.336-.725-3.236h-.16l-.725,3.236Z" fill="#fff"/>
        <path id="Trazado_76" data-name="Trazado 76" d="M410.557,104.129v2.322a3.6,3.6,0,0,1-3.946,3.7h-3.845V100.43h3.845A3.6,3.6,0,0,1,410.557,104.129Zm-2.6.059a1.287,1.287,0,0,0-1.437-1.364h-1.146v4.933h1.146a1.287,1.287,0,0,0,1.437-1.364Z" fill="#fff"/>
        <path id="Trazado_77" data-name="Trazado 77" d="M331.844,117.585v1.277h3.265v2.322h-3.265v1.364h3.845v2.379h-6.456v-9.721h6.456v2.379Z" fill="#fff"/>
        <path id="Trazado_78" data-name="Trazado 78" d="M337.4,115.206h3.033l2.321,5.354h.189l-.1-.711v-4.643h2.6v9.721h-3.018l-2.335-5.354H339.9l.116.711v4.643H337.4Z" fill="#fff"/>
        <path id="Trazado_79" data-name="Trazado 79" d="M350.619,115.206h3.439l1.625,4.657h.159l1.625-4.657H360.8v9.721h-2.611v-4.875l.116-.711h-.189l-1.451,3.975h-1.915l-1.451-3.975h-.188l.116.711v4.875h-2.612Z" fill="#fff"/>
        <path id="Trazado_80" data-name="Trazado 80" d="M367.784,123.389h-2.641l-.348,1.538h-2.771l2.655-9.721h3.67l2.656,9.721h-2.873Zm-.523-2.336-.725-3.235h-.16l-.725,3.235Z" fill="#fff"/>
        <path id="Trazado_81" data-name="Trazado 81" d="M375.923,122.127h-1.1v2.8h-2.612v-9.721h4.483a3.2,3.2,0,0,1,3.424,3.41,3.357,3.357,0,0,1-1.639,3.076l1.871,3.235h-3.032Zm-1.1-2.409h1.6a1.059,1.059,0,1,0,0-2.118h-1.6Z" fill="#fff"/>
        <path id="Trazado_82" data-name="Trazado 82" d="M381.306,121.459v-2.785c0-2.191,1.582-3.642,3.976-3.642s3.96,1.451,3.96,3.642v.406h-2.6v-.363a1.366,1.366,0,0,0-2.727,0v2.7a1.366,1.366,0,0,0,2.727,0v-.363h2.6v.406c0,2.191-1.566,3.642-3.96,3.642S381.306,123.65,381.306,121.459Z" fill="#fff"/>
        <path id="Trazado_83" data-name="Trazado 83" d="M398.412,115.206v9.721h-2.6v-3.7h-2.336v3.7h-2.611v-9.721h2.611v3.613h2.336v-3.613Z" fill="#fff"/>
        <path id="Trazado_84" data-name="Trazado 84" d="M405.406,123.389h-2.641l-.348,1.538h-2.771l2.655-9.721h3.671l2.655,9.721h-2.873Zm-.522-2.336-.726-3.235H404l-.726,3.235Z" fill="#fff"/>
      </g>
    </g>
  </g>
</svg>
