<svg xmlns="http://www.w3.org/2000/svg" width="37.853" height="39.719" viewBox="0 0 37.853 39.719">
  <g id="Grupo_8" data-name="Grupo 8" transform="translate(-495.979 -1047.476)">
    <path id="Trazado_36" data-name="Trazado 36" d="M517,1087.195c-.257-.195-.48-.41-.344-.774s.432-.393.762-.392q3.744.008,7.486-.005a.622.622,0,0,0,.453-.181,26.877,26.877,0,0,0,4.073-8.6c.143-.575.226-1.165.347-1.746a.561.561,0,0,1,.691-.5.569.569,0,0,1,.441.7,18.071,18.071,0,0,1-1.061,4.156,30.846,30.846,0,0,1-3.011,5.885c-.047.074-.09.15-.157.264.727,0,1.418.036,2.1-.014a1.177,1.177,0,0,0,.953-.719,25.039,25.039,0,0,0,2.907-10.987,10.943,10.943,0,0,0-2.659-7.5,13.681,13.681,0,0,0-5.638-3.714c-1.534-.574-3.1-1.06-4.631-1.646a14.759,14.759,0,0,1-4.216-2.342,4.378,4.378,0,0,1-1.772-2.687,10.362,10.362,0,0,1-.013-1.553,3.052,3.052,0,0,0-.388,2.46,4.228,4.228,0,0,0,1.3,1.941,14.638,14.638,0,0,0,4.435,2.648c1.478.61,3,1.112,4.47,1.745a13.235,13.235,0,0,1,5.548,4.163,9.867,9.867,0,0,1,1.877,4.776c.005.038.007.077.01.116.023.429-.17.691-.526.716s-.587-.2-.636-.628a8.677,8.677,0,0,0-2.031-4.734,11.933,11.933,0,0,0-4.383-3.187c-1.31-.576-2.669-1.038-4-1.566a18.934,18.934,0,0,1-4.708-2.494,9.5,9.5,0,0,1-1.661-1.612,4.106,4.106,0,0,1-.408-4.754,10.19,10.19,0,0,1,3.242-3.493c1.014-.731,2.1-1.366,3.151-2.042a2.054,2.054,0,0,0,.316-.221,5.938,5.938,0,0,0-2.873.286,44.788,44.788,0,0,0-8.6,5.276,14.312,14.312,0,0,0-2.961,3.1,4.465,4.465,0,0,0,.8,6.428c.616.544,1.335.97,1.99,1.473a28.884,28.884,0,0,1,2.752,2.191,6.915,6.915,0,0,1,1.484,8.382A17.655,17.655,0,0,1,508.03,1081a41.229,41.229,0,0,1-5.843,4.659,1.638,1.638,0,0,0-.423.376H514c.091,0,.181,0,.271,0,.333-.021.633.039.761.393s-.086.582-.353.771H496.911a3.479,3.479,0,0,1-.487-.3,1.314,1.314,0,0,1,.206-2.116c1.624-1.078,3.279-2.114,4.866-3.245a23.641,23.641,0,0,0,5.625-5.288,10.527,10.527,0,0,0,1.161-2.047,4.388,4.388,0,0,0-.9-5.021,22.268,22.268,0,0,0-2.4-2.006c-.885-.708-1.854-1.326-2.669-2.1a5.052,5.052,0,0,1-1.678-4.247,6.351,6.351,0,0,1,1.2-3.028,15.845,15.845,0,0,1,4.171-4.01,79.707,79.707,0,0,1,9.825-5.813,4.709,4.709,0,0,1,2.132-.493c1.344,0,2.689,0,4.033,0,.562,0,.892.229.99.674a.9.9,0,0,1-.593,1.087,27.544,27.544,0,0,0-5.01,3,11.8,11.8,0,0,0-1.848,1.809,2.512,2.512,0,0,0,.239,3.707,9.967,9.967,0,0,0,3.448,2.184c1.77.71,3.585,1.31,5.373,1.976a15.708,15.708,0,0,1,5.588,3.4,12.062,12.062,0,0,1,3.648,8.66,22.732,22.732,0,0,1-1.73,8.836c-.309.806-.694,1.584-1.012,2.387a3.062,3.062,0,0,1-2.134,2.007Zm-19.879-1.292.056.124c.746,0,1.491,0,2.237-.005a.454.454,0,0,0,.207-.094,44.9,44.9,0,0,0,7.722-5.825,15.187,15.187,0,0,0,3.569-4.834,5.98,5.98,0,0,0-1.133-6.826,13.2,13.2,0,0,0-2.922-2.346,11.14,11.14,0,0,1-2.916-2.467,5.047,5.047,0,0,1-1.208-4c.082-.553.263-1.092.4-1.638a9.552,9.552,0,0,0-.947,1.534,3.769,3.769,0,0,0,.5,4.214,9.362,9.362,0,0,0,1.555,1.5c.836.647,1.755,1.186,2.6,1.821a7.57,7.57,0,0,1,2.6,3.215,6.086,6.086,0,0,1-.623,5.493,18.272,18.272,0,0,1-4.2,4.782,57.745,57.745,0,0,1-7.173,5.082A3.209,3.209,0,0,0,497.124,1085.9Z" fill="#c7813b"/>
    <path id="Trazado_37" data-name="Trazado 37" d="M513.73,1065.725a14.5,14.5,0,0,1-1.313-.8.429.429,0,0,1-.006-.659.82.82,0,0,1,.632-.2,2.8,2.8,0,0,1,.983.517.744.744,0,0,1,.2.628C514.183,1065.4,513.928,1065.533,513.73,1065.725Z" fill="#c7813b"/>
    <path id="Trazado_38" data-name="Trazado 38" d="M517.931,1066.854a.581.581,0,0,1-.79.6,5.918,5.918,0,0,1-.985-.6.467.467,0,0,1-.1-.688c.135-.157.45-.327.6-.27a5.506,5.506,0,0,1,1.123.656C517.875,1066.616,517.9,1066.79,517.931,1066.854Z" fill="#c7813b"/>
    <path id="Trazado_39" data-name="Trazado 39" d="M507.332,1058.83c-.021-.454.072-.748.448-.859a.561.561,0,0,1,.7.486c.042.318.068.639.089.96a.544.544,0,0,1-.453.622.56.56,0,0,1-.672-.433,1.113,1.113,0,0,1-.047-.187C507.368,1059.189,507.346,1058.959,507.332,1058.83Z" fill="#c7813b"/>
    <path id="Trazado_40" data-name="Trazado 40" d="M520.9,1069.845c-.065.078-.169.308-.335.371a.679.679,0,0,1-.6-.074,3.613,3.613,0,0,1-.715-.947.691.691,0,0,1,.1-.616.741.741,0,0,1,.582-.149A2.188,2.188,0,0,1,520.9,1069.845Z" fill="#c7813b"/>
    <path id="Trazado_41" data-name="Trazado 41" d="M520.78,1073.146c0-.18-.014-.362,0-.54a.531.531,0,0,1,.532-.514.5.5,0,0,1,.581.448,6.061,6.061,0,0,1-.012,1.227.487.487,0,0,1-.564.415.51.51,0,0,1-.534-.46A4.09,4.09,0,0,1,520.78,1073.146Z" fill="#c7813b"/>
    <path id="Trazado_42" data-name="Trazado 42" d="M510.246,1054.831a2.582,2.582,0,0,1-.194.422c-.183.248-.377.49-.58.721a.586.586,0,0,1-.828.088.575.575,0,0,1-.08-.8,3.931,3.931,0,0,1,.642-.765.76.76,0,0,1,.62-.122C510,1054.434,510.114,1054.678,510.246,1054.831Z" fill="#c7813b"/>
    <path id="Trazado_43" data-name="Trazado 43" d="M518.272,1079.432c.123.1.339.189.413.347a.69.69,0,0,1-.016.57,5.01,5.01,0,0,1-.736.84.476.476,0,0,1-.7.015c-.139-.153-.272-.5-.192-.63a7.241,7.241,0,0,1,.9-1.041C517.995,1079.477,518.11,1079.479,518.272,1079.432Z" fill="#c7813b"/>
    <path id="Trazado_44" data-name="Trazado 44" d="M520.426,1076.051a.59.59,0,0,1,.581.8,6.288,6.288,0,0,1-.506.952.523.523,0,0,1-.714.189.507.507,0,0,1-.295-.674,5.789,5.789,0,0,1,.559-1.051C520.136,1076.14,520.344,1076.095,520.426,1076.051Z" fill="#c7813b"/>
    <path id="Trazado_45" data-name="Trazado 45" d="M509.521,1061.525a2.939,2.939,0,0,1,.46.252c.227.19.44.4.648.606a.586.586,0,0,1,.051.831.58.58,0,0,1-.8.042,4.316,4.316,0,0,1-.743-.724.726.726,0,0,1-.074-.6C509.124,1061.765,509.356,1061.662,509.521,1061.525Z" fill="#c7813b"/>
    <path id="Trazado_46" data-name="Trazado 46" d="M512.008,1053.431a.6.6,0,0,1-.568-.615,1.147,1.147,0,0,1,.987-.785.555.555,0,0,1,.558.6A1.218,1.218,0,0,1,512.008,1053.431Z" fill="#c7813b"/>
    <path id="Trazado_47" data-name="Trazado 47" d="M515.005,1083.819c-.163-.025-.255-.011-.285-.048a1.628,1.628,0,0,1-.386-.559c-.062-.27.467-.774.8-.832a.576.576,0,0,1,.457,1.031C515.39,1083.574,515.164,1083.71,515.005,1083.819Z" fill="#c7813b"/>
  </g>
</svg>
