<svg xmlns="http://www.w3.org/2000/svg" width="44.007" height="35.602" viewBox="0 0 44.007 35.602">
  <path id="Trazado_18" data-name="Trazado 18" d="M312.916,1457.595a6.559,6.559,0,0,1,.471-1,2.407,2.407,0,0,1,2.06-1.044c.451-.007.9,0,1.445,0a4.412,4.412,0,0,1-1.253-2.495c-.1-1.436-.057-2.883-.028-4.324a.643.643,0,0,1,.743-.655c.382.062.541.364.529.843a34.315,34.315,0,0,0-.023,3.6,3.654,3.654,0,0,0,2.188,3.025,1.166,1.166,0,0,1,.535.551c.146.384-.212.738-.7.741-1.074.008-2.148,0-3.223,0-1.028,0-1.455.434-1.455,1.467q0,5.242,0,10.485c0,.924.342,1.263,1.273,1.264.459,0,.917,0,1.375,0a.679.679,0,0,1,.776.678q.528,3.5,1.049,7c.024.156.05.311.078.466a.676.676,0,0,0,.711.613q1.2.015,2.406,0a.7.7,0,0,0,.746-.68q.523-3.459,1.041-6.919.04-.276.084-.552a.648.648,0,0,1,.7-.611c.559,0,1.117.009,1.676,0a.958.958,0,0,0,1.023-.945c.034-.9.009-1.8.009-2.744a3.407,3.407,0,0,1-3.351-.991,3.152,3.152,0,0,1-.88-2.349c.084-2.127,1.633-3.287,4.21-3.172,0-.67.045-1.343-.013-2.008-.057-.641-.558-1-1.286-1q-1.611-.013-3.223,0c-.389,0-.735-.056-.835-.493s.166-.644.524-.818a3.672,3.672,0,0,0,2.236-3.349,14.8,14.8,0,0,0-.121-3.377,3.825,3.825,0,0,0-5.933-2.294l-.035.026c-.546.382-.9.387-1.15.013-.237-.35-.116-.714.4-1.058a4.986,4.986,0,0,1,5.252-.416,4.888,4.888,0,0,1,2.869,4.277c.061.9.032,1.8.025,2.706a5.2,5.2,0,0,1-1.37,3.48c1.209.054,2.429-.209,3.322.835.911-1.024,2.109-.793,3.3-.833-.106-.146-.167-.234-.232-.318a4.948,4.948,0,0,1-1.1-3.1,22.427,22.427,0,0,1,.1-3.384,5.149,5.149,0,0,1,10.21.814c.013.544,0,1.088.009,1.632a5.733,5.733,0,0,1-1.328,4.34c1.163.067,2.381-.189,3.166.708a9.631,9.631,0,0,1,1.644-.634,9.194,9.194,0,0,1,1.7-.023c0-.092.011-.127,0-.142a5.446,5.446,0,0,1-1.281-3.9,19.477,19.477,0,0,1,.134-2.866,5.146,5.146,0,0,1,10.185.746,25.854,25.854,0,0,1-.067,3.431,4.782,4.782,0,0,1-1.3,2.7c.56,0,1.026-.011,1.491,0a2.475,2.475,0,0,1,2.449,2.061,1.761,1.761,0,0,1,.029.469.639.639,0,0,1-1.271.064c-.221-1.08-.493-1.307-1.583-1.308-1.017,0-2.034-.007-3.051,0-.394,0-.688-.127-.768-.528-.077-.386.162-.6.489-.76a3.826,3.826,0,0,0,2.311-3.7,21.422,21.422,0,0,0-.075-2.743,3.855,3.855,0,0,0-7.659.313,26.517,26.517,0,0,0-.008,2.791,3.766,3.766,0,0,0,2.221,3.326,1.175,1.175,0,0,1,.5.425c.223.428-.117.869-.654.874-1.06.009-2.12,0-3.18,0-1.089,0-1.512.422-1.514,1.505,0,.5,0,1,0,1.542a3.438,3.438,0,0,1,3.276.894,3.188,3.188,0,0,1,.966,2.361,3.251,3.251,0,0,1-1.315,2.632c-.7.543-1.164.639-2.907.625,0,.928-.031,1.857.011,2.783a.93.93,0,0,0,1,.871c.529.014,1.059,0,1.589.005s.728.171.806.685q.557,3.649,1.107,7.3c.087.578.3.778.871.781q1.074.006,2.148,0c.566,0,.783-.175.868-.73q.555-3.606,1.1-7.214c.1-.67.261-.82.95-.821.458,0,.917,0,1.375,0a1.011,1.011,0,0,0,1.115-1.12q.006-3.781,0-7.563a1.894,1.894,0,0,1,.018-.427.638.638,0,0,1,1.251-.007,1.791,1.791,0,0,1,.019.428q0,3.738,0,7.477a2.3,2.3,0,0,1-2.517,2.5h-.978c-.183,1.207-.364,2.391-.543,3.574s-.34,2.351-.532,3.523a1.973,1.973,0,0,1-1.953,1.666c-.788.012-1.576.006-2.364,0a1.966,1.966,0,0,1-2.087-1.758c-.28-1.767-.534-3.537-.8-5.306-.082-.551-.167-1.1-.257-1.7-1-.031-2.042.162-2.846-.707-.8.847-1.836.7-2.85.7-.077.468-.139.9-.221,1.338a.633.633,0,0,1-.74.594.647.647,0,0,1-.522-.8c.089-.609.185-1.217.28-1.825a.643.643,0,0,1,.712-.594c.53,0,1.06.005,1.59,0a.989.989,0,0,0,1.09-1.094c.009-1.132,0-2.263,0-3.4,0-.819.447-1.074,1.168-.679a2.042,2.042,0,1,0-.007-3.521c-.721.4-1.157.139-1.161-.692-.005-.816,0-1.633,0-2.449-.005-.944-.448-1.381-1.4-1.385-1.06,0-2.12-.006-3.18,0-.378,0-.693-.08-.786-.5s.147-.63.489-.8a3.773,3.773,0,0,0,2.286-3.627,18.878,18.878,0,0,0-.092-2.955,3.8,3.8,0,0,0-4.1-3.129,3.878,3.878,0,0,0-3.545,3.77c-.016.816-.021,1.633,0,2.449a3.775,3.775,0,0,0,2.1,3.4c.1.055.206.1.308.152a.613.613,0,0,1,.367.739.6.6,0,0,1-.663.487q-1.611,0-3.223,0c-1.066,0-1.48.415-1.482,1.479,0,.8.006,1.6,0,2.407-.008.767-.462,1.026-1.131.657a2.041,2.041,0,1,0,.007,3.476c.66-.364,1.119-.094,1.124.673.007,1.117,0,2.235,0,3.352,0,.817.363,1.168,1.186,1.172.444,0,.888,0,1.332,0,.634,0,.815.145.911.772.273,1.782.536,3.566.8,5.349.1.637.182,1.275.286,1.91.089.548.313.731.872.734q1.053.006,2.106,0c.629,0,.838-.185.933-.816.12-.792.235-1.585.356-2.377.073-.483.37-.737.769-.667.375.065.576.39.507.855-.13.878-.259,1.755-.409,2.63a1.94,1.94,0,0,1-1.945,1.662q-1.245.018-2.492,0a1.927,1.927,0,0,1-1.935-1.672c-.353-2.233-.683-4.469-1.023-6.7-.017-.112-.039-.223-.068-.381-.988-.033-2.037.163-2.838-.712-.8.863-1.84.692-2.855.71-.2,1.326-.4,2.625-.6,3.925-.154,1.018-.293,2.039-.456,3.056a1.984,1.984,0,0,1-2.114,1.781c-.759,0-1.518.005-2.277,0a1.975,1.975,0,0,1-2.035-1.767c-.349-2.318-.7-4.636-1.057-7h-.994a2.29,2.29,0,0,1-2.428-1.706.369.369,0,0,0-.075-.095Z" transform="translate(-312.916 -1444.514)" fill="#c7813b"/>
</svg>
