<svg xmlns="http://www.w3.org/2000/svg" width="46.93" height="38.327" viewBox="0 0 46.93 38.327">
  <g id="Grupo_6" data-name="Grupo 6" transform="translate(-311.455 -1192.522)">
    <path id="Trazado_30" data-name="Trazado 30" d="M358.385,1211.852a21.294,21.294,0,0,1-.889,2.816,8.009,8.009,0,0,1-8.667,4.315,8.069,8.069,0,0,1,1.381-16c.362-.009.726.038,1.253.068a28.047,28.047,0,0,0-1.08-2.787,10.538,10.538,0,0,0-11.568-5.721,9.926,9.926,0,0,0-5.2,2.727c-1.1,1.059-1.264,1.065-2.345.009a10.5,10.5,0,0,0-15.086.536,11.153,11.153,0,0,0-2.889,7.011,9.688,9.688,0,0,0,1.338,5.022.473.473,0,0,0,.362.176c2.674.01,5.348,0,8.021.016.341,0,.357-.211.418-.424q1.017-3.54,2.033-7.08a2.582,2.582,0,0,1,.2-.557.894.894,0,0,1,1.549-.018,2.152,2.152,0,0,1,.186.466q2.1,6.724,4.2,13.449c.045.143.1.284.189.559.088-.261.14-.407.186-.555q.759-2.424,1.517-4.847c.226-.717.484-.907,1.228-.909q2.109,0,4.217,0a2.133,2.133,0,0,1,.32.017.933.933,0,0,1,.863.952.9.9,0,0,1-.955.857c-1.054.016-2.109.006-3.163.007h-.871c-.167.524-.334,1.041-.5,1.559q-.934,2.992-1.864,5.984c-.032.1-.061.206-.1.3a.9.9,0,0,1-.891.661.886.886,0,0,1-.88-.675c-.264-.8-.505-1.6-.755-2.4q-1.743-5.591-3.488-11.181c-.04-.13-.086-.259-.176-.531-.09.28-.145.438-.192.6-.452,1.568-.9,3.138-1.355,4.7-.2.7-.444.882-1.183.883q-3.69,0-7.38,0h-.5c1.34,3.043,12.216,14.084,16.6,16.862,1.036-.855,2.1-1.7,3.125-2.586,1.419-1.231,2.808-2.5,4.209-3.749.444-.4.819-.481,1.2-.273a.89.89,0,0,1,.326,1.293,1.5,1.5,0,0,1-.272.307q-3.959,3.408-7.925,6.806a.928.928,0,0,1-1.4,0,99.077,99.077,0,0,1-14.525-13.738c-1.2-1.437-2.236-3.014-3.324-4.543-.187-.263-.351-.424-.69-.385a4.941,4.941,0,0,1-.778,0,.9.9,0,0,1-.155-1.8c.117-.024.235-.043.358-.066-2.911-5.561.074-12.249,4.145-15.168a12.526,12.526,0,0,1,15.65.947c.738-.521,1.436-1.1,2.209-1.546a12.428,12.428,0,0,1,18.285,7.493c.134.484.2.986.348,1.467a.87.87,0,0,0,.362.505,8.069,8.069,0,0,1,4.7,6.391c.006.04.044.076.066.114Zm-8.064,5.423a6.231,6.231,0,1,0-6.236-6.231A6.234,6.234,0,0,0,350.321,1217.275Z" fill="#c7813b"/>
    <path id="Trazado_31" data-name="Trazado 31" d="M342.24,1220.424a.961.961,0,0,1,.935-.934.945.945,0,0,1,.9.915.964.964,0,0,1-.943.926A.906.906,0,0,1,342.24,1220.424Z" fill="#c7813b"/>
    <path id="Trazado_32" data-name="Trazado 32" d="M349.4,1211.96c-.813,0-1.573.009-2.333,0a.891.891,0,0,1-.983-.762c-.091-.612.3-1.04,1.008-1.064.58-.019,1.161,0,1.742-.005h.566v-1.838c0-.2-.01-.4.007-.595a.9.9,0,0,1,.917-.894.888.888,0,0,1,.9.907c.026.671.008,1.344.01,2.016v.405c.772,0,1.5-.006,2.229,0,.594.006.961.245,1.071.672a.888.888,0,0,1-.889,1.15c-.777.023-1.555.006-2.411.006,0,.567,0,1.109,0,1.65,0,.275.014.552-.01.825a.929.929,0,0,1-.89.883.917.917,0,0,1-.922-.9c-.029-.609-.009-1.221-.011-1.832Z" fill="#c7813b"/>
  </g>
</svg>
