<svg xmlns="http://www.w3.org/2000/svg" width="34.372" height="40.708" viewBox="0 0 34.372 40.708">
  <g id="Grupo_11" data-name="Grupo 11" transform="translate(-142.432 -1315.559)">
    <path id="Trazado_54" data-name="Trazado 54" d="M159.3,1356.268a26.7,26.7,0,0,1-16.866-25.052c.006-2.465,0-4.931,0-7.4a1.645,1.645,0,0,1,1.183-1.768q7.608-3.159,15.214-6.322a1.927,1.927,0,0,1,1.572,0q7.6,3.168,15.215,6.319a1.736,1.736,0,0,1,1.186,1.775c-.014,2.519,0,5.037-.006,7.556a26.631,26.631,0,0,1-16.391,24.694l-.473.2Zm14.411-27.058-.092-.005c0-1.392-.006-2.784.006-4.176a.448.448,0,0,0-.316-.5q-6.7-2.766-13.388-5.543a.852.852,0,0,0-.593,0q-6.7,2.761-13.388,5.544a.445.445,0,0,0-.33.491c.013,2.174-.05,4.35.028,6.521a26.207,26.207,0,0,0,.472,4.575A23.12,23.12,0,0,0,159.3,1352.8a.656.656,0,0,0,.629.011,23.291,23.291,0,0,0,8.683-6.857,22.612,22.612,0,0,0,4.765-11.318C173.6,1332.843,173.6,1331.021,173.709,1329.21Z" fill="#c7813b"/>
    <path id="Trazado_55" data-name="Trazado 55" d="M157.8,1336.9c1.423-1.427,2.741-2.75,4.06-4.071q1.36-1.365,2.726-2.727a1.6,1.6,0,1,1,2.261,2.239q-3.875,3.882-7.757,7.756a1.6,1.6,0,0,1-2.478-.009q-2.153-2.146-4.3-4.3a1.59,1.59,0,0,1,.808-2.712,1.6,1.6,0,0,1,1.505.526c.963.967,1.931,1.929,2.892,2.9A3.207,3.207,0,0,1,157.8,1336.9Z" fill="#c7813b"/>
  </g>
</svg>
