<svg xmlns="http://www.w3.org/2000/svg" width="44.027" height="44.007" viewBox="0 0 44.027 44.007">
  <g id="Grupo_5" data-name="Grupo 5" transform="translate(-492.892 -1189.682)">
    <path id="Trazado_24" data-name="Trazado 24" d="M516.287,1189.682c.82.112,1.64.223,2.46.338.155.021.31.052.464.086a.871.871,0,0,1,.754,1.015.907.907,0,0,1-1.077.677,30.841,30.841,0,0,0-4.139-.373c-7.873.237-13.942,3.749-17.648,10.674-3.979,7.435-3.256,14.771,1.544,21.7.08.115.174.221.257.325,2.109-.774,3.849-.288,4.831,1.336a3.606,3.606,0,0,1-5.258,4.744c-1.51-1.136-1.825-2.917-.853-4.9a22.923,22.923,0,0,1-2.7-4.412,22.009,22.009,0,0,1,14.062-30.389c1.358-.371,2.781-.5,4.175-.743.125-.022.249-.05.374-.074Zm-15.645,35.756a1.889,1.889,0,1,0,1.891,1.873A1.892,1.892,0,0,0,500.642,1225.438Z" fill="#c7813b"/>
    <path id="Trazado_25" data-name="Trazado 25" d="M536.919,1213.061c-.11.806-.2,1.616-.334,2.419a22.032,22.032,0,0,1-16.463,17.595,22.412,22.412,0,0,1-9.208.255c-.057-.01-.112-.027-.168-.039-.634-.137-.929-.5-.839-1.026s.518-.77,1.145-.657a20.3,20.3,0,0,0,20.121-32.043c-.075-.1-.155-.2-.188-.249a12.068,12.068,0,0,1-1.834.321A3.548,3.548,0,0,1,525.7,1197a3.61,3.61,0,0,1,5.929-3.6,3.561,3.561,0,0,1,.775,4.246.648.648,0,0,0,.083.818,21.756,21.756,0,0,1,4.366,11.564,3.415,3.415,0,0,0,.071.374Zm-7.75-15.128a1.889,1.889,0,1,0-1.879-1.884A1.892,1.892,0,0,0,529.169,1197.933Z" fill="#c7813b"/>
    <path id="Trazado_26" data-name="Trazado 26" d="M503.058,1218.571c-.431-1.112-.816-2.124-1.224-3.127a.456.456,0,0,0-.338-.213c-.414-.027-.831-.006-1.246-.012a.866.866,0,0,1-.983-.974q-.008-2.557,0-5.114c0-.68.315-.98,1.008-.991.486-.008,1.082.15,1.425-.076.315-.208.35-.833.52-1.269.125-.319.262-.634.408-.945s.309-.61.509-1c-.348-.324-.722-.655-1.076-1.006a.878.878,0,0,1-.01-1.417q1.8-1.812,3.617-3.614a.871.871,0,0,1,1.387,0c.289.278.579.557.848.853a.367.367,0,0,0,.511.087q1.308-.588,2.648-1.1c.227-.087.324-.171.314-.416-.017-.414-.011-.83,0-1.245a.848.848,0,0,1,.928-.94q2.6-.011,5.2,0a.857.857,0,0,1,.949.964c.007.415-.014.831.011,1.245a.468.468,0,0,0,.2.349c1,.407,2.018.789,3.146,1.224.258-.276.591-.649.943-1a.877.877,0,0,1,1.417,0q1.8,1.787,3.588,3.584a.9.9,0,0,1-.01,1.451c-.321.328-.647.65-.969.976-.019.019-.025.051,0-.007.414,1.069.8,2.081,1.206,3.083a.462.462,0,0,0,.338.218c.428.026.859,0,1.288.012a.845.845,0,0,1,.941.925q.011,2.62,0,5.242a.843.843,0,0,1-.917.908c-.444.011-.889-.013-1.332.015a.454.454,0,0,0-.323.233c-.4.99-.787,1.99-1.217,3.092.275.263.643.6,1,.954a.891.891,0,0,1,0,1.45q-1.786,1.8-3.586,3.585a.88.88,0,0,1-1.418-.013c-.352-.354-.683-.729-.941-1.006-1.127.436-2.14.821-3.143,1.228a.464.464,0,0,0-.21.342c-.025.414-.005.83-.011,1.246a.865.865,0,0,1-.971.984q-2.558.009-5.114,0c-.681,0-.985-.316-.993-1.007,0-.4-.01-.8,0-1.2a.336.336,0,0,0-.28-.4c-.505-.154-1.005-.333-1.492-.536s-.958-.449-1.521-.716c-.311.329-.647.7-1,1.051a.892.892,0,0,1-1.45.01q-1.8-1.788-3.584-3.587a.876.876,0,0,1,0-1.416C502.4,1219.174,502.774,1218.839,503.058,1218.571Zm10.032-20.787c0,.447.006.873,0,1.3a.892.892,0,0,1-.792,1.007,12.475,12.475,0,0,0-3.746,1.556.864.864,0,0,1-1.233-.154c-.308-.314-.588-.656-.841-.94l-2.651,2.673c.265.25.574.527.866.821a.913.913,0,0,1,.146,1.341,12.072,12.072,0,0,0-1.493,3.587c-.167.7-.417.881-1.152.885-.394,0-.788,0-1.182,0v3.643c.453,0,.88,0,1.307,0a.884.884,0,0,1,1,.792,12.405,12.405,0,0,0,1.537,3.708.889.889,0,0,1-.164,1.3c-.3.3-.634.575-.92.831l2.628,2.616c-.009.005.02-.005.039-.025.286-.281.568-.566.855-.846a.888.888,0,0,1,1.269-.162,12.349,12.349,0,0,0,3.706,1.539c.619.145.814.421.82,1.074,0,.412,0,.823,0,1.249h3.642c0-.43,0-.83,0-1.23,0-.68.2-.939.843-1.094a12.275,12.275,0,0,0,3.666-1.528.875.875,0,0,1,1.27.14c.311.312.595.651.853.937l2.645-2.657c-.278-.266-.594-.556-.9-.859a.882.882,0,0,1-.159-1.266,12.488,12.488,0,0,0,1.552-3.748.872.872,0,0,1,.976-.771c.439-.006.879,0,1.32,0v-3.643h-.678c-.214,0-.429.006-.644,0a.884.884,0,0,1-.974-.778,12.466,12.466,0,0,0-1.554-3.747.882.882,0,0,1,.162-1.267c.3-.3.629-.582.932-.861l-2.61-2.6a.142.142,0,0,0-.054.028c-.276.271-.55.544-.826.815a.924.924,0,0,1-1.375.147,12.087,12.087,0,0,0-3.63-1.5.9.9,0,0,1-.819-1.026c0-.424,0-.849,0-1.283Z" fill="#c7813b"/>
    <path id="Trazado_27" data-name="Trazado 27" d="M523.68,1192.073a.867.867,0,0,1-.875.86.884.884,0,0,1-.837-.861.856.856,0,0,1,.881-.849A.843.843,0,0,1,523.68,1192.073Z" fill="#c7813b"/>
    <path id="Trazado_28" data-name="Trazado 28" d="M507.88,1231.333a.83.83,0,0,1-.857.827.85.85,0,0,1-.848-.845.871.871,0,0,1,.888-.858A.852.852,0,0,1,507.88,1231.333Z" fill="#c7813b"/>
    <path id="Trazado_29" data-name="Trazado 29" d="M522.012,1211.92a7.1,7.1,0,1,1-6.866-7.334A7.124,7.124,0,0,1,522.012,1211.92Zm-1.712-.213a5.389,5.389,0,1,0-5.41,5.365A5.416,5.416,0,0,0,520.3,1211.707Z" fill="#c7813b"/>
  </g>
</svg>
