<svg xmlns="http://www.w3.org/2000/svg" width="17.579" height="17.597" viewBox="0 0 17.579 17.597">
  <path id="Trazado_127" data-name="Trazado 127" d="M282.8,2020.789v-1.1c.056-.384.1-.771.17-1.152a8.805,8.805,0,0,1,7.765-7.055,8.355,8.355,0,0,1,5.275,1.155,8.594,8.594,0,0,1,4.337,8.483,8.2,8.2,0,0,1-1.918,4.658,8.66,8.66,0,0,1-5.3,3.122c-.325.059-.655.092-.983.136h-1.1c-.215-.026-.43-.049-.645-.08a8.82,8.82,0,0,1-7.468-7.184C282.874,2021.447,282.841,2021.117,282.8,2020.789Zm4.04,2.621c.022.03.026.041.035.047a.446.446,0,0,0,.058.037,5.729,5.729,0,0,0,8.685-5.006.337.337,0,0,1,.14-.3,3.612,3.612,0,0,0,.832-.888l-1.037.282-.021-.046a2.071,2.071,0,0,0,.81-1.062,1.766,1.766,0,0,1-.159.077c-.325.122-.652.24-.977.365a.206.206,0,0,1-.241-.066,2.009,2.009,0,0,0-3.321.995,5.953,5.953,0,0,0-.074.94,5.765,5.765,0,0,1-4.117-2.113,2.075,2.075,0,0,0,.589,2.689l-.024.038-.828-.234a2.1,2.1,0,0,0,1.529,1.995h-.841a2.082,2.082,0,0,0,1.879,1.415A4.115,4.115,0,0,1,286.836,2023.41Z" transform="translate(-282.796 -2011.44)" fill="#c7813b"/>
</svg>
