<svg xmlns="http://www.w3.org/2000/svg" width="44.006" height="44.033" viewBox="0 0 44.006 44.033">
  <g id="Grupo_9" data-name="Grupo 9" transform="translate(-312.917 -1047.321)">
    <path id="Trazado_48" data-name="Trazado 48" d="M356.923,1076.825a2.188,2.188,0,0,1-2.4,1.564c-2.32-.046-4.642-.005-6.963-.018a1.92,1.92,0,0,1-1.892-2.49,2.014,2.014,0,0,1,.958-1.165.533.533,0,0,0,.232-.381q.022-2.707,0-5.416c0-.143-.189-.4-.3-.408-1-.032-2-.019-3.01-.019a7.474,7.474,0,0,1-1.306,3.314c-.311.429-.89.454-1.092.021a.848.848,0,0,1,.03-.708,7.1,7.1,0,0,0,1.142-4.323c-.04-2.076-.009-4.155-.011-6.232a1.95,1.95,0,0,0-2.136-2.133h-7.951a1.944,1.944,0,0,0-2.117,2.108q0,3.459,0,6.92a6.109,6.109,0,0,0,9.209,5.344,1.06,1.06,0,0,1,.714-.153.686.686,0,0,1,.42.507.912.912,0,0,1-.358.654,6.743,6.743,0,0,1-3.517,1.112,7.382,7.382,0,0,1-7.664-6.188c-.012-.068-.025-.136-.045-.246h-1.5c-1,0-2.006.009-3.008-.006a.518.518,0,0,0-.533.307,1.9,1.9,0,0,1-3.339-.009.517.517,0,0,0-.539-.3c-2.019.009-4.039.005-6.059,0a2.106,2.106,0,0,1-.429-.014.639.639,0,0,1,0-1.261,2.109,2.109,0,0,1,.429-.013h6.3v-6.189h-2.219c-.158,0-.315,0-.473,0-.493-.01-.794-.263-.784-.659.01-.38.3-.625.77-.628.788-.005,1.577-.013,2.364,0a.646.646,0,0,0,.674-.361,1.9,1.9,0,0,1,3.295.042.55.55,0,0,0,.567.319c1.488-.012,2.977-.006,4.441-.006a8.7,8.7,0,0,1,.475-1.034,3.138,3.138,0,0,1,2.715-1.542c.655-.016,1.31,0,1.988,0v-2.049a2.057,2.057,0,0,1-1.8-1.564c-1.362,0-2.721-.007-4.08.011-.12,0-.262.144-.354.254a3.864,3.864,0,0,1-4.061,1.429,3.817,3.817,0,0,1-2.99-2.989,3.988,3.988,0,0,1,6.957-3.445.873.873,0,0,0,.789.366c1.244-.021,2.489-.008,3.718-.008a2.063,2.063,0,0,1,2.276-1.544q1.8,0,3.61,0a2.012,2.012,0,0,1,2.153,1.544h.4c.845,0,1.692-.032,2.535.009a2.3,2.3,0,0,0,1.975-.733,3.9,3.9,0,0,1,5.7.3,3.994,3.994,0,1,1-6.157,5.085.638.638,0,0,0-.568-.283c-1.288.013-2.576.006-3.885.006a2.07,2.07,0,0,1-1.81,1.565v2.049h1.541a3.3,3.3,0,0,1,3.61,2.579c.96,0,1.932-.009,2.9,0,1.216.015,2.443-.049,3.646.087a6.342,6.342,0,0,1,5.515,6.173c.029,2.736.011,5.473,0,8.21a.546.546,0,0,0,.338.6,2.1,2.1,0,0,1,.957,1.26ZM343.6,1067.2c.977,0,1.892,0,2.807,0a1.585,1.585,0,0,1,1.748,1.759q0,2.535,0,5.07v.443h6.182c0-2.9.052-5.764-.015-8.626a5.083,5.083,0,0,0-4.906-4.828c-1.876-.036-3.752-.007-5.628-.006a1.331,1.331,0,0,0-.189.036v6.151Zm-11.439-16.764H331.7c-1.288,0-2.575-.012-3.862.008a.967.967,0,0,1-.94-.522,2.575,2.575,0,0,0-2.156-1.286,2.706,2.706,0,0,0-1.213,5.19,2.662,2.662,0,0,0,3.343-1.036,1.066,1.066,0,0,1,1.051-.56c1.258.025,2.517.009,3.776.009h.459Zm8.105,1.8c1.467,0,2.883.011,4.3-.007a.965.965,0,0,1,.944.514A2.668,2.668,0,0,0,348.3,1054a2.707,2.707,0,1,0-2.8-4.055.934.934,0,0,1-.91.495c-1.287-.018-2.575-.007-3.862-.007h-.459Zm-11.483,14.943v-6.15h-4.671v6.15Zm7.4-13.4c.658,0,1.316.005,1.973,0,.553-.006.793-.237.8-.779q.009-1.674,0-3.347a.671.671,0,0,0-.77-.761q-1.974-.011-3.948,0c-.54,0-.771.248-.773.8q-.008,1.652,0,3.3c0,.545.24.776.792.781C334.9,1053.787,335.54,1053.782,336.184,1053.782Zm-14.676,10.283c0,1.2,0,2.405,0,3.608,0,.508.231.8.626.811s.661-.293.662-.819q0-3.566,0-7.13c0-.505-.234-.8-.627-.812-.408-.012-.66.295-.661.82Q321.506,1062.3,321.508,1064.065Zm29.785,11.731q-1.8,0-3.607,0c-.51,0-.8.228-.817.621-.015.409.292.666.815.667q3.564,0,7.128,0c.524,0,.832-.257.818-.665s-.308-.622-.816-.623Q353.054,1075.794,351.293,1075.8Zm-14.225-18.671V1055.1h-1.723v2.026Z" fill="#c7813b"/>
    <path id="Trazado_49" data-name="Trazado 49" d="M350.648,1091.354a6.107,6.107,0,0,1-2.257-.977,4.42,4.42,0,0,1-1.31-5.527,19.66,19.66,0,0,1,3.724-4.687.594.594,0,0,1,.889,0,17.1,17.1,0,0,1,3.859,5,4.49,4.49,0,0,1-3.048,6.013l-.654.176Zm.6-9.838a16.271,16.271,0,0,0-3.142,4.2,2.572,2.572,0,0,0-.228.863,3.34,3.34,0,0,0,2.022,3.2,3.4,3.4,0,0,0,3.822-.793,3.005,3.005,0,0,0,.48-3.673A17.943,17.943,0,0,0,351.249,1081.516Z" fill="#c7813b"/>
    <path id="Trazado_50" data-name="Trazado 50" d="M314.209,1061.005c-.229,0-.459.016-.686,0a.627.627,0,0,1-.605-.652.6.6,0,0,1,.591-.619,13.121,13.121,0,0,1,1.415,0,.619.619,0,0,1,.6.651.63.63,0,0,1-.634.624c-.228.015-.458,0-.686,0Z" fill="#c7813b"/>
  </g>
</svg>
